<mxfile host="Electron" modified="2024-07-11T05:35:00.388Z" agent="Mozilla/5.0 (Windows NT 10.0; Win64; x64) AppleWebKit/537.36 (KHTML, like Gecko) draw.io/24.4.13 Chrome/124.0.6367.207 Electron/30.0.6 Safari/537.36" etag="C66nQLziY9tvUyvQ_ssn" version="24.4.13" type="device">
  <diagram name="Page-1" id="7a6c530e-6e37-e111-ec74-82921da8cc10">
    <mxGraphModel dx="1332" dy="1819" grid="1" gridSize="10" guides="1" tooltips="1" connect="1" arrows="1" fold="1" page="1" pageScale="1.5" pageWidth="1169" pageHeight="826" background="#184380" math="0" shadow="0">
      <root>
        <mxCell id="0" style=";html=1;" />
        <mxCell id="1" style=";html=1;" parent="0" />
        <mxCell id="23046e2b9bb16c14-27" value="" style="rounded=1;whiteSpace=wrap;html=1;shadow=0;strokeWidth=2;fillColor=#8BC63E;fontSize=12;fontColor=#000000;align=center;strokeColor=none;arcSize=0;" parent="1" vertex="1">
          <mxGeometry x="1360" y="30" width="1570" height="1052.5" as="geometry" />
        </mxCell>
        <mxCell id="23046e2b9bb16c14-2" value="" style="rounded=1;whiteSpace=wrap;html=1;shadow=0;strokeWidth=2;fillColor=none;fontSize=12;fontColor=#000000;align=center;strokeColor=#FFFFFF;arcSize=10;" parent="1" vertex="1">
          <mxGeometry x="1570" y="452" width="170" height="278" as="geometry" />
        </mxCell>
        <mxCell id="23046e2b9bb16c14-54" value="Application&lt;div&gt;Server&lt;/div&gt;" style="rounded=1;whiteSpace=wrap;html=1;shadow=0;strokeWidth=2;fillColor=none;fontSize=11;fontColor=#FFFFFF;align=center;strokeColor=#FFFFFF;dashed=1;verticalAlign=top;" parent="1" vertex="1">
          <mxGeometry x="1646" y="473" width="70" height="211" as="geometry" />
        </mxCell>
        <mxCell id="23046e2b9bb16c14-28" value="On-premises networks" style="rounded=1;whiteSpace=wrap;html=1;shadow=0;strokeWidth=2;fillColor=#F04D22;fontSize=12;fontColor=#FFFFFF;align=center;strokeColor=none;arcSize=6;verticalAlign=top;" parent="1" vertex="1">
          <mxGeometry x="1017" y="410" width="253" height="340" as="geometry" />
        </mxCell>
        <mxCell id="23046e2b9bb16c14-49" value="" style="rounded=1;whiteSpace=wrap;html=1;shadow=0;strokeWidth=2;fillColor=none;fontSize=12;fontColor=#000000;align=center;strokeColor=#FFFFFF;" parent="1" vertex="1">
          <mxGeometry x="1037" y="452" width="80" height="218" as="geometry" />
        </mxCell>
        <mxCell id="23046e2b9bb16c14-1" value="" style="rounded=1;whiteSpace=wrap;html=1;shadow=0;strokeWidth=2;fillColor=none;fontSize=12;fontColor=#000000;align=center;strokeColor=#FFFFFF;rotation=90;" parent="1" vertex="1">
          <mxGeometry x="1603.77" y="700" width="140.73" height="238" as="geometry" />
        </mxCell>
        <mxCell id="24964f25f45c63f1-1" value="" style="verticalLabelPosition=bottom;html=1;verticalAlign=top;strokeColor=none;fillColor=#FFFFFF;shape=mxgraph.azure.computer;rounded=0;shadow=0;fontSize=12;fontColor=#000000;align=center;" parent="1" vertex="1">
          <mxGeometry x="1052" y="466" width="50" height="45" as="geometry" />
        </mxCell>
        <mxCell id="24964f25f45c63f1-2" value="" style="verticalLabelPosition=bottom;html=1;verticalAlign=top;strokeColor=none;fillColor=#FFFFFF;shape=mxgraph.azure.computer;rounded=0;shadow=0;fontSize=12;fontColor=#000000;align=center;" parent="1" vertex="1">
          <mxGeometry x="1052" y="536" width="50" height="45" as="geometry" />
        </mxCell>
        <mxCell id="24964f25f45c63f1-3" value="" style="verticalLabelPosition=bottom;html=1;verticalAlign=top;strokeColor=none;fillColor=#FFFFFF;shape=mxgraph.azure.computer;rounded=0;shadow=0;fontSize=12;fontColor=#000000;align=center;" parent="1" vertex="1">
          <mxGeometry x="1052" y="606" width="50" height="45" as="geometry" />
        </mxCell>
        <mxCell id="24964f25f45c63f1-6" value="" style="shadow=0;dashed=0;html=1;strokeColor=none;shape=mxgraph.mscae.enterprise.lock;fillColor=#FFFFFF;rounded=0;fontSize=12;fontColor=#000000;align=center;" parent="1" vertex="1">
          <mxGeometry x="1586" y="468" width="39" height="50" as="geometry" />
        </mxCell>
        <mxCell id="23046e2b9bb16c14-75" style="html=1;startArrow=none;startFill=0;startSize=10;endArrow=none;endFill=0;endSize=10;strokeWidth=3;fontSize=11;fontColor=#FFFFFF;entryX=0.793;entryY=0.26;entryPerimeter=0;strokeColor=#FFFFFF;rounded=0;" parent="1" source="23046e2b9bb16c14-29" edge="1">
          <mxGeometry relative="1" as="geometry">
            <mxPoint x="1620.15" y="584.0000000000001" as="targetPoint" />
          </mxGeometry>
        </mxCell>
        <mxCell id="23046e2b9bb16c14-29" value="" style="verticalLabelPosition=bottom;html=1;verticalAlign=top;strokeColor=none;fillColor=#FFFFFF;shape=mxgraph.azure.virtual_machine;rounded=1;shadow=0;fontSize=12;fontColor=#000000;align=center;" parent="1" vertex="1">
          <mxGeometry x="1656" y="525" width="50" height="40" as="geometry" />
        </mxCell>
        <mxCell id="23046e2b9bb16c14-76" style="html=1;entryX=1.016;entryY=0.509;entryPerimeter=0;startArrow=none;startFill=0;startSize=10;endArrow=none;endFill=0;endSize=10;strokeWidth=3;fontSize=11;fontColor=#FFFFFF;strokeColor=#FFFFFF;rounded=0;" parent="1" source="23046e2b9bb16c14-30" edge="1">
          <mxGeometry relative="1" as="geometry">
            <mxPoint x="1631.2999999999997" y="596.45" as="targetPoint" />
          </mxGeometry>
        </mxCell>
        <mxCell id="23046e2b9bb16c14-30" value="" style="verticalLabelPosition=bottom;html=1;verticalAlign=top;strokeColor=none;fillColor=#FFFFFF;shape=mxgraph.azure.virtual_machine;rounded=1;shadow=0;fontSize=12;fontColor=#000000;align=center;" parent="1" vertex="1">
          <mxGeometry x="1656" y="578" width="50" height="40" as="geometry" />
        </mxCell>
        <mxCell id="23046e2b9bb16c14-77" style="html=1;entryX=0.802;entryY=0.762;entryPerimeter=0;startArrow=none;startFill=0;startSize=10;endArrow=none;endFill=0;endSize=10;strokeWidth=3;fontSize=11;fontColor=#FFFFFF;strokeColor=#FFFFFF;rounded=0;" parent="1" source="23046e2b9bb16c14-31" edge="1">
          <mxGeometry relative="1" as="geometry">
            <mxPoint x="1620.6" y="609.1" as="targetPoint" />
          </mxGeometry>
        </mxCell>
        <mxCell id="23046e2b9bb16c14-31" value="" style="verticalLabelPosition=bottom;html=1;verticalAlign=top;strokeColor=none;fillColor=#FFFFFF;shape=mxgraph.azure.virtual_machine;rounded=1;shadow=0;fontSize=12;fontColor=#000000;align=center;" parent="1" vertex="1">
          <mxGeometry x="1656" y="630" width="50" height="40" as="geometry" />
        </mxCell>
        <mxCell id="23046e2b9bb16c14-48" value="Azure Vnet" style="shadow=0;dashed=0;html=1;strokeColor=none;fillColor=#FFFFFF;labelPosition=center;verticalLabelPosition=bottom;verticalAlign=top;shape=mxgraph.office.clouds.azure;rounded=1;fontSize=12;fontColor=#FFFFFF;align=center;" parent="1" vertex="1">
          <mxGeometry x="1317" y="-10" width="83" height="53" as="geometry" />
        </mxCell>
        <mxCell id="23046e2b9bb16c14-50" value="" style="rounded=1;whiteSpace=wrap;html=1;shadow=0;strokeWidth=2;fillColor=none;fontSize=12;fontColor=#000000;align=center;strokeColor=#FFFFFF;" parent="1" vertex="1">
          <mxGeometry x="1147" y="451" width="80" height="218" as="geometry" />
        </mxCell>
        <mxCell id="23046e2b9bb16c14-51" value="" style="verticalLabelPosition=bottom;html=1;verticalAlign=top;strokeColor=none;fillColor=#FFFFFF;shape=mxgraph.azure.computer;rounded=0;shadow=0;fontSize=12;fontColor=#000000;align=center;" parent="1" vertex="1">
          <mxGeometry x="1162" y="465" width="50" height="45" as="geometry" />
        </mxCell>
        <mxCell id="23046e2b9bb16c14-52" value="" style="verticalLabelPosition=bottom;html=1;verticalAlign=top;strokeColor=none;fillColor=#FFFFFF;shape=mxgraph.azure.computer;rounded=0;shadow=0;fontSize=12;fontColor=#000000;align=center;" parent="1" vertex="1">
          <mxGeometry x="1162" y="535" width="50" height="45" as="geometry" />
        </mxCell>
        <mxCell id="23046e2b9bb16c14-53" value="" style="verticalLabelPosition=bottom;html=1;verticalAlign=top;strokeColor=none;fillColor=#FFFFFF;shape=mxgraph.azure.computer;rounded=0;shadow=0;fontSize=12;fontColor=#000000;align=center;" parent="1" vertex="1">
          <mxGeometry x="1162" y="605" width="50" height="45" as="geometry" />
        </mxCell>
        <mxCell id="24964f25f45c63f1-4" value="Gateway" style="shadow=0;dashed=0;html=1;strokeColor=none;shape=mxgraph.mscae.enterprise.gateway;fillColor=#FFFFFF;rounded=0;fontSize=12;fontColor=#FFFFFF;align=center;labelPosition=center;verticalLabelPosition=top;verticalAlign=bottom;" parent="1" vertex="1">
          <mxGeometry x="1107" y="690" width="50" height="50" as="geometry" />
        </mxCell>
        <mxCell id="23046e2b9bb16c14-55" value="" style="rounded=1;whiteSpace=wrap;html=1;shadow=0;strokeWidth=2;fillColor=none;fontSize=12;fontColor=#000000;align=center;strokeColor=#FFFFFF;arcSize=9;" parent="1" vertex="1">
          <mxGeometry x="1760" y="452" width="161" height="278" as="geometry" />
        </mxCell>
        <mxCell id="23046e2b9bb16c14-56" value="Database&lt;div&gt;Server&lt;/div&gt;" style="rounded=1;whiteSpace=wrap;html=1;shadow=0;strokeWidth=2;fillColor=none;fontSize=11;fontColor=#FFFFFF;align=center;strokeColor=#FFFFFF;dashed=1;verticalAlign=top;" parent="1" vertex="1">
          <mxGeometry x="1841" y="473" width="70" height="211" as="geometry" />
        </mxCell>
        <mxCell id="23046e2b9bb16c14-57" value="" style="shadow=0;dashed=0;html=1;strokeColor=none;shape=mxgraph.mscae.enterprise.lock;fillColor=#FFFFFF;rounded=0;fontSize=12;fontColor=#000000;align=center;" parent="1" vertex="1">
          <mxGeometry x="1781" y="468" width="39" height="50" as="geometry" />
        </mxCell>
        <mxCell id="23046e2b9bb16c14-74" style="html=1;startArrow=none;startFill=0;startSize=10;endArrow=none;endFill=0;endSize=10;strokeWidth=3;fontSize=11;fontColor=#FFFFFF;strokeColor=#FFFFFF;rounded=0;edgeStyle=elbowEdgeStyle;elbow=vertical;" parent="1" source="23046e2b9bb16c14-58" target="23046e2b9bb16c14-2" edge="1">
          <mxGeometry relative="1" as="geometry" />
        </mxCell>
        <mxCell id="23046e2b9bb16c14-78" style="edgeStyle=orthogonalEdgeStyle;html=1;startArrow=none;startFill=0;startSize=10;endArrow=none;endFill=0;endSize=10;strokeWidth=3;fontSize=11;fontColor=#FFFFFF;strokeColor=#FFFFFF;rounded=0;" parent="1" source="23046e2b9bb16c14-58" target="23046e2b9bb16c14-60" edge="1">
          <mxGeometry relative="1" as="geometry" />
        </mxCell>
        <mxCell id="23046e2b9bb16c14-79" style="html=1;startArrow=none;startFill=0;startSize=10;endArrow=none;endFill=0;endSize=10;strokeWidth=3;fontSize=11;fontColor=#FFFFFF;strokeColor=#FFFFFF;rounded=0;exitX=0.796;exitY=0.241;exitPerimeter=0;" parent="1" source="23046e2b9bb16c14-58" target="23046e2b9bb16c14-59" edge="1">
          <mxGeometry relative="1" as="geometry" />
        </mxCell>
        <mxCell id="23046e2b9bb16c14-80" style="html=1;startArrow=none;startFill=0;startSize=10;endArrow=none;endFill=0;endSize=10;strokeWidth=3;fontSize=11;fontColor=#FFFFFF;strokeColor=#FFFFFF;rounded=0;exitX=0.789;exitY=0.767;exitPerimeter=0;" parent="1" source="23046e2b9bb16c14-58" target="23046e2b9bb16c14-61" edge="1">
          <mxGeometry relative="1" as="geometry" />
        </mxCell>
        <mxCell id="23046e2b9bb16c14-58" value="" style="shadow=0;dashed=0;html=1;strokeColor=none;labelPosition=center;verticalLabelPosition=bottom;verticalAlign=top;shape=mxgraph.mscae.cloud.azure_load_balancer_feature;fillColor=#FFFFFF;rounded=1;fontSize=12;fontColor=#000000;align=center;" parent="1" vertex="1">
          <mxGeometry x="1776" y="573" width="50" height="50" as="geometry" />
        </mxCell>
        <mxCell id="23046e2b9bb16c14-59" value="" style="verticalLabelPosition=bottom;html=1;verticalAlign=top;strokeColor=none;fillColor=#FFFFFF;shape=mxgraph.azure.virtual_machine;rounded=1;shadow=0;fontSize=12;fontColor=#000000;align=center;" parent="1" vertex="1">
          <mxGeometry x="1851" y="525" width="50" height="40" as="geometry" />
        </mxCell>
        <mxCell id="23046e2b9bb16c14-60" value="" style="verticalLabelPosition=bottom;html=1;verticalAlign=top;strokeColor=none;fillColor=#FFFFFF;shape=mxgraph.azure.virtual_machine;rounded=1;shadow=0;fontSize=12;fontColor=#000000;align=center;" parent="1" vertex="1">
          <mxGeometry x="1851" y="578" width="50" height="40" as="geometry" />
        </mxCell>
        <mxCell id="23046e2b9bb16c14-61" value="" style="verticalLabelPosition=bottom;html=1;verticalAlign=top;strokeColor=none;fillColor=#FFFFFF;shape=mxgraph.azure.virtual_machine;rounded=1;shadow=0;fontSize=12;fontColor=#000000;align=center;" parent="1" vertex="1">
          <mxGeometry x="1851" y="630" width="50" height="40" as="geometry" />
        </mxCell>
        <mxCell id="23046e2b9bb16c14-69" style="edgeStyle=orthogonalEdgeStyle;html=1;startArrow=none;startFill=0;startSize=10;endArrow=none;endFill=0;endSize=10;strokeWidth=3;fontSize=11;fontColor=#FFFFFF;strokeColor=#FFFFFF;dashed=1;rounded=0;" parent="1" source="23046e2b9bb16c14-62" target="23046e2b9bb16c14-63" edge="1">
          <mxGeometry relative="1" as="geometry" />
        </mxCell>
        <mxCell id="23046e2b9bb16c14-62" value="Firewall" style="shadow=0;dashed=0;html=1;strokeColor=none;labelPosition=right;verticalLabelPosition=middle;verticalAlign=middle;shape=mxgraph.office.concepts.firewall;fillColor=#FFFFFF;rounded=1;fontSize=11;fontColor=#FFFFFF;align=left;spacingLeft=5;" parent="1" vertex="1">
          <mxGeometry x="879" y="517" width="47" height="43" as="geometry" />
        </mxCell>
        <mxCell id="23046e2b9bb16c14-72" style="edgeStyle=orthogonalEdgeStyle;html=1;startArrow=none;startFill=0;startSize=10;endArrow=none;endFill=0;endSize=10;strokeWidth=3;fontSize=11;fontColor=#FFFFFF;strokeColor=#FFFFFF;dashed=1;rounded=0;" parent="1" source="23046e2b9bb16c14-63" target="24964f25f45c63f1-4" edge="1">
          <mxGeometry relative="1" as="geometry">
            <Array as="points">
              <mxPoint x="902" y="772" />
              <mxPoint x="1132" y="772" />
            </Array>
          </mxGeometry>
        </mxCell>
        <mxCell id="23046e2b9bb16c14-63" value="Windows&lt;div&gt;Azure&lt;/div&gt;&lt;div&gt;Load&lt;/div&gt;&lt;div&gt;Balancer&lt;/div&gt;" style="verticalLabelPosition=middle;html=1;verticalAlign=middle;strokeColor=none;fillColor=#FFFFFF;shape=mxgraph.azure.azure_load_balancer;rounded=1;shadow=0;dashed=1;fontSize=11;fontColor=#FFFFFF;align=left;labelPosition=right;spacingLeft=5;" parent="1" vertex="1">
          <mxGeometry x="877" y="635" width="50" height="35" as="geometry" />
        </mxCell>
        <mxCell id="23046e2b9bb16c14-81" value="A" style="text;html=1;strokeColor=none;fillColor=none;align=center;verticalAlign=middle;whiteSpace=wrap;rounded=1;shadow=0;fontSize=11;fontColor=#FFFFFF;fontStyle=1" parent="1" vertex="1">
          <mxGeometry x="1217" y="720" width="20" height="20" as="geometry" />
        </mxCell>
        <mxCell id="2HjCvc5ROPE-OSjrc0Rh-12" value="&lt;div style=&quot;&quot;&gt;&lt;font style=&quot;font-size: 12px;&quot; color=&quot;#ffffff&quot;&gt;10.0.0.0/16&lt;/font&gt;&lt;/div&gt;" style="text;strokeColor=none;align=center;fillColor=none;html=1;verticalAlign=middle;whiteSpace=wrap;rounded=0;fontColor=#393C56;" parent="1" vertex="1">
          <mxGeometry x="1330" y="60" width="60" height="30" as="geometry" />
        </mxCell>
        <mxCell id="2HjCvc5ROPE-OSjrc0Rh-28" value="" style="shadow=0;dashed=0;html=1;strokeColor=none;labelPosition=center;verticalLabelPosition=bottom;verticalAlign=top;shape=mxgraph.mscae.cloud.azure_load_balancer_feature;fillColor=#FFFFFF;rounded=1;fontSize=12;fontColor=#000000;align=center;" parent="1" vertex="1">
          <mxGeometry x="1985" y="573" width="50" height="50" as="geometry" />
        </mxCell>
        <mxCell id="2HjCvc5ROPE-OSjrc0Rh-29" style="html=1;startArrow=none;startFill=0;startSize=10;endArrow=none;endFill=0;endSize=10;strokeWidth=3;fontSize=11;fontColor=#FFFFFF;strokeColor=#FFFFFF;rounded=0;exitX=0.796;exitY=0.241;exitPerimeter=0;" parent="1" source="2HjCvc5ROPE-OSjrc0Rh-28" edge="1">
          <mxGeometry relative="1" as="geometry">
            <mxPoint x="2060" y="561.6320598006646" as="targetPoint" />
          </mxGeometry>
        </mxCell>
        <mxCell id="2HjCvc5ROPE-OSjrc0Rh-30" style="edgeStyle=orthogonalEdgeStyle;html=1;startArrow=none;startFill=0;startSize=10;endArrow=none;endFill=0;endSize=10;strokeWidth=3;fontSize=11;fontColor=#FFFFFF;strokeColor=#FFFFFF;rounded=0;" parent="1" source="2HjCvc5ROPE-OSjrc0Rh-28" edge="1">
          <mxGeometry relative="1" as="geometry">
            <mxPoint x="2060" y="598" as="targetPoint" />
          </mxGeometry>
        </mxCell>
        <mxCell id="2HjCvc5ROPE-OSjrc0Rh-31" style="html=1;startArrow=none;startFill=0;startSize=10;endArrow=none;endFill=0;endSize=10;strokeWidth=3;fontSize=11;fontColor=#FFFFFF;strokeColor=#FFFFFF;rounded=0;exitX=0.789;exitY=0.767;exitPerimeter=0;" parent="1" source="2HjCvc5ROPE-OSjrc0Rh-28" edge="1">
          <mxGeometry relative="1" as="geometry">
            <mxPoint x="2060" y="634.0421139554087" as="targetPoint" />
          </mxGeometry>
        </mxCell>
        <mxCell id="2HjCvc5ROPE-OSjrc0Rh-33" value="" style="shadow=0;dashed=0;html=1;strokeColor=none;shape=mxgraph.mscae.enterprise.lock;fillColor=#FFFFFF;rounded=0;fontSize=12;fontColor=#000000;align=center;" parent="1" vertex="1">
          <mxGeometry x="1990" y="468" width="39" height="50" as="geometry" />
        </mxCell>
        <mxCell id="2HjCvc5ROPE-OSjrc0Rh-36" style="html=1;startArrow=none;startFill=0;startSize=10;endArrow=none;endFill=0;endSize=10;strokeWidth=3;fontSize=11;fontColor=#FFFFFF;strokeColor=#FFFFFF;rounded=0;edgeStyle=elbowEdgeStyle;elbow=vertical;exitX=0;exitY=0.5;exitDx=0;exitDy=0;exitPerimeter=0;" parent="1" source="2HjCvc5ROPE-OSjrc0Rh-28" edge="1">
          <mxGeometry relative="1" as="geometry">
            <mxPoint x="1970" y="598.1960784313726" as="sourcePoint" />
            <mxPoint x="1920" y="600" as="targetPoint" />
            <Array as="points">
              <mxPoint x="1950" y="598" />
            </Array>
          </mxGeometry>
        </mxCell>
        <mxCell id="2HjCvc5ROPE-OSjrc0Rh-60" value="&lt;font style=&quot;font-size: 9px;&quot; color=&quot;#ffffff&quot;&gt;10.0.1.0/24&lt;/font&gt;" style="text;strokeColor=none;align=center;fillColor=none;html=1;verticalAlign=middle;whiteSpace=wrap;rounded=0;fontColor=#393C56;" parent="1" vertex="1">
          <mxGeometry x="1650.5" y="496" width="61" height="30" as="geometry" />
        </mxCell>
        <mxCell id="2HjCvc5ROPE-OSjrc0Rh-62" value="&lt;font style=&quot;font-size: 9px;&quot; color=&quot;#ffffff&quot;&gt;10.0.2.0/24&lt;/font&gt;" style="text;strokeColor=none;align=center;fillColor=none;html=1;verticalAlign=middle;whiteSpace=wrap;rounded=0;fontColor=#393C56;" parent="1" vertex="1">
          <mxGeometry x="1846" y="496" width="60" height="30" as="geometry" />
        </mxCell>
        <mxCell id="2HjCvc5ROPE-OSjrc0Rh-63" value="&lt;font color=&quot;#ffffff&quot; style=&quot;font-size: 9px;&quot;&gt;10.0.3.0/24&lt;/font&gt;" style="text;strokeColor=none;align=center;fillColor=none;html=1;verticalAlign=middle;whiteSpace=wrap;rounded=0;fontColor=#393C56;" parent="1" vertex="1">
          <mxGeometry x="2055" y="496" width="60" height="30" as="geometry" />
        </mxCell>
        <mxCell id="2HjCvc5ROPE-OSjrc0Rh-81" value="" style="image;aspect=fixed;html=1;points=[];align=center;fontSize=12;image=img/lib/azure2/networking/ExpressRoute_Circuits.svg;strokeColor=#E07A5F;fontColor=#393C56;fillColor=#F2CC8F;rotation=90;" parent="1" vertex="1">
          <mxGeometry x="1290" y="740" width="70" height="64" as="geometry" />
        </mxCell>
        <mxCell id="2HjCvc5ROPE-OSjrc0Rh-82" value="&lt;font color=&quot;#ffffff&quot;&gt;BGP&lt;/font&gt;" style="text;strokeColor=none;align=center;fillColor=none;html=1;verticalAlign=middle;whiteSpace=wrap;rounded=0;fontColor=#393C56;" parent="1" vertex="1">
          <mxGeometry x="1060" y="684" width="60" height="30" as="geometry" />
        </mxCell>
        <mxCell id="2HjCvc5ROPE-OSjrc0Rh-83" value="&lt;font style=&quot;font-size: 8px;&quot; color=&quot;#ffffff&quot;&gt;Primary Ip: 192.168.0.1&lt;/font&gt;" style="text;strokeColor=none;align=center;fillColor=none;html=1;verticalAlign=middle;whiteSpace=wrap;rounded=0;fontColor=#393C56;" parent="1" vertex="1">
          <mxGeometry x="1120" y="684" width="158" height="30" as="geometry" />
        </mxCell>
        <mxCell id="2HjCvc5ROPE-OSjrc0Rh-84" value="&lt;font style=&quot;font-size: 8px;&quot; color=&quot;#ffffff&quot;&gt;Secondary IP: 192.168.0.2&lt;/font&gt;" style="text;strokeColor=none;align=center;fillColor=none;html=1;verticalAlign=middle;whiteSpace=wrap;rounded=0;fontColor=#393C56;" parent="1" vertex="1">
          <mxGeometry x="1115" y="693" width="180" height="30" as="geometry" />
        </mxCell>
        <mxCell id="2HjCvc5ROPE-OSjrc0Rh-85" value="&lt;font color=&quot;#ffffff&quot;&gt;192.168.0.0/16&lt;/font&gt;" style="text;strokeColor=none;align=center;fillColor=none;html=1;verticalAlign=middle;whiteSpace=wrap;rounded=0;fontColor=#393C56;" parent="1" vertex="1">
          <mxGeometry x="1102" y="421" width="60" height="32" as="geometry" />
        </mxCell>
        <mxCell id="2HjCvc5ROPE-OSjrc0Rh-86" style="edgeStyle=orthogonalEdgeStyle;html=1;startArrow=none;startFill=0;startSize=10;endArrow=none;endFill=0;endSize=10;strokeWidth=3;fontSize=11;fontColor=#FFFFFF;strokeColor=#FFFFFF;dashed=1;rounded=0;" parent="1" edge="1">
          <mxGeometry relative="1" as="geometry">
            <Array as="points">
              <mxPoint x="1153" y="771.55" />
              <mxPoint x="1383" y="771.55" />
            </Array>
            <mxPoint x="1130" y="771.55" as="sourcePoint" />
            <mxPoint x="1308" y="771.55" as="targetPoint" />
          </mxGeometry>
        </mxCell>
        <mxCell id="2HjCvc5ROPE-OSjrc0Rh-88" value="" style="image;aspect=fixed;html=1;points=[];align=center;fontSize=12;image=img/lib/azure2/networking/Virtual_Network_Gateways.svg;strokeColor=#E07A5F;fontColor=#393C56;fillColor=#F2CC8F;rotation=0;" parent="1" vertex="1">
          <mxGeometry x="1702.16" y="761" width="52" height="69" as="geometry" />
        </mxCell>
        <mxCell id="2HjCvc5ROPE-OSjrc0Rh-89" value="&lt;font color=&quot;#ffffff&quot;&gt;ExpressRoute&lt;/font&gt;" style="text;strokeColor=none;align=center;fillColor=none;html=1;verticalAlign=middle;whiteSpace=wrap;rounded=0;fontColor=#393C56;" parent="1" vertex="1">
          <mxGeometry x="1295" y="804" width="60" height="30" as="geometry" />
        </mxCell>
        <mxCell id="2HjCvc5ROPE-OSjrc0Rh-90" value="&lt;font color=&quot;#ffffff&quot;&gt;Virtual Subnet Gateway&lt;/font&gt;" style="text;strokeColor=none;align=center;fillColor=none;html=1;verticalAlign=middle;whiteSpace=wrap;rounded=0;fontColor=#393C56;" parent="1" vertex="1">
          <mxGeometry x="1570" y="761" width="90" height="30" as="geometry" />
        </mxCell>
        <mxCell id="2HjCvc5ROPE-OSjrc0Rh-91" value="&lt;font color=&quot;#ffffff&quot;&gt;10.0.255.0/27&lt;/font&gt;" style="text;strokeColor=none;align=center;fillColor=none;html=1;verticalAlign=middle;whiteSpace=wrap;rounded=0;fontColor=#393C56;" parent="1" vertex="1">
          <mxGeometry x="1585" y="788" width="60" height="30" as="geometry" />
        </mxCell>
        <mxCell id="2HjCvc5ROPE-OSjrc0Rh-92" value="&lt;font style=&quot;font-size: 9px;&quot; color=&quot;#ffffff&quot;&gt;Primary BGP: 10.0.255.4&lt;/font&gt;" style="text;strokeColor=none;align=center;fillColor=none;html=1;verticalAlign=middle;whiteSpace=wrap;rounded=0;fontColor=#393C56;" parent="1" vertex="1">
          <mxGeometry x="1645" y="838" width="150" height="30" as="geometry" />
        </mxCell>
        <mxCell id="2HjCvc5ROPE-OSjrc0Rh-93" value="&lt;font style=&quot;font-size: 9px;&quot; color=&quot;#ffffff&quot;&gt;Secondary BGP: 10.0.255.5&lt;/font&gt;" style="text;strokeColor=none;align=center;fillColor=none;html=1;verticalAlign=middle;whiteSpace=wrap;rounded=0;fontColor=#393C56;" parent="1" vertex="1">
          <mxGeometry x="1635.0000000000002" y="850" width="170" height="30" as="geometry" />
        </mxCell>
        <mxCell id="2HjCvc5ROPE-OSjrc0Rh-94" value="" style="image;aspect=fixed;html=1;points=[];align=center;fontSize=12;image=img/lib/azure2/networking/Network_Security_Groups.svg;strokeColor=#E07A5F;fontColor=#393C56;fillColor=#F2CC8F;" parent="1" vertex="1">
          <mxGeometry x="1564.59" y="436" width="21.41" height="26" as="geometry" />
        </mxCell>
        <mxCell id="2HjCvc5ROPE-OSjrc0Rh-95" value="" style="image;aspect=fixed;html=1;points=[];align=center;fontSize=12;image=img/lib/azure2/networking/Network_Security_Groups.svg;strokeColor=#E07A5F;fontColor=#393C56;fillColor=#F2CC8F;" parent="1" vertex="1">
          <mxGeometry x="1752.94" y="440" width="18.94" height="23" as="geometry" />
        </mxCell>
        <mxCell id="2HjCvc5ROPE-OSjrc0Rh-96" value="" style="image;aspect=fixed;html=1;points=[];align=center;fontSize=12;image=img/lib/azure2/networking/Network_Security_Groups.svg;strokeColor=#E07A5F;fontColor=#393C56;fillColor=#F2CC8F;" parent="1" vertex="1">
          <mxGeometry x="1966.06" y="437.5" width="18.94" height="23" as="geometry" />
        </mxCell>
        <mxCell id="2HjCvc5ROPE-OSjrc0Rh-98" value="&lt;font style=&quot;font-size: 8px;&quot; color=&quot;#ffffff&quot;&gt;NSG-1&lt;/font&gt;" style="text;strokeColor=none;align=center;fillColor=none;html=1;verticalAlign=middle;whiteSpace=wrap;rounded=0;fontColor=#393C56;" parent="1" vertex="1">
          <mxGeometry x="1570" y="421" width="60" height="30" as="geometry" />
        </mxCell>
        <mxCell id="2HjCvc5ROPE-OSjrc0Rh-99" value="&lt;font style=&quot;font-size: 8px;&quot; color=&quot;#ffffff&quot;&gt;NSG-2&lt;/font&gt;" style="text;strokeColor=none;align=center;fillColor=none;html=1;verticalAlign=middle;whiteSpace=wrap;rounded=0;fontColor=#393C56;" parent="1" vertex="1">
          <mxGeometry x="1754" y="423" width="60" height="30" as="geometry" />
        </mxCell>
        <mxCell id="2HjCvc5ROPE-OSjrc0Rh-100" value="&lt;font style=&quot;font-size: 8px;&quot; color=&quot;#ffffff&quot;&gt;NSG-3&lt;/font&gt;" style="text;strokeColor=none;align=center;fillColor=none;html=1;verticalAlign=middle;whiteSpace=wrap;rounded=0;fontColor=#393C56;" parent="1" vertex="1">
          <mxGeometry x="1969" y="421" width="60" height="30" as="geometry" />
        </mxCell>
        <mxCell id="2HjCvc5ROPE-OSjrc0Rh-101" value="" style="image;aspect=fixed;html=1;points=[];align=center;fontSize=12;image=img/lib/azure2/identity/Users.svg;strokeColor=#E07A5F;fontColor=#393C56;fillColor=#F2CC8F;" parent="1" vertex="1">
          <mxGeometry x="1566.15" y="330" width="18.29" height="20" as="geometry" />
        </mxCell>
        <mxCell id="2HjCvc5ROPE-OSjrc0Rh-105" value="" style="endArrow=classic;html=1;rounded=0;strokeColor=#E07A5F;fontColor=#393C56;fillColor=#F2CC8F;" parent="1" edge="1">
          <mxGeometry width="50" height="50" relative="1" as="geometry">
            <mxPoint x="1575.03" y="350" as="sourcePoint" />
            <mxPoint x="1575.03" y="430" as="targetPoint" />
          </mxGeometry>
        </mxCell>
        <mxCell id="2HjCvc5ROPE-OSjrc0Rh-106" value="&lt;font style=&quot;font-size: 10px;&quot; color=&quot;#ffffff&quot;&gt;Port 80: inbound allowed&lt;/font&gt;" style="text;strokeColor=none;align=center;fillColor=none;html=1;verticalAlign=middle;whiteSpace=wrap;rounded=0;fontColor=#393C56;" parent="1" vertex="1">
          <mxGeometry x="1570" y="359.95" width="125.41" height="30" as="geometry" />
        </mxCell>
        <mxCell id="2HjCvc5ROPE-OSjrc0Rh-113" value="" style="endArrow=none;html=1;rounded=0;strokeColor=#E07A5F;fontColor=#393C56;fillColor=#F2CC8F;" parent="1" edge="1">
          <mxGeometry width="50" height="50" relative="1" as="geometry">
            <mxPoint x="1575.03" y="536" as="sourcePoint" />
            <mxPoint x="1575.03" y="466" as="targetPoint" />
          </mxGeometry>
        </mxCell>
        <mxCell id="2HjCvc5ROPE-OSjrc0Rh-114" value="" style="endArrow=classic;startArrow=classic;html=1;rounded=0;strokeColor=#E07A5F;fontColor=#393C56;fillColor=#F2CC8F;" parent="1" edge="1">
          <mxGeometry width="50" height="50" relative="1" as="geometry">
            <mxPoint x="1571" y="538.24" as="sourcePoint" />
            <mxPoint x="1650.5" y="538.24" as="targetPoint" />
          </mxGeometry>
        </mxCell>
        <mxCell id="2HjCvc5ROPE-OSjrc0Rh-115" value="&lt;font style=&quot;font-size: 7px;&quot; color=&quot;#ffffff&quot;&gt;Port 3389: denied&lt;/font&gt;" style="text;strokeColor=none;align=center;fillColor=none;html=1;verticalAlign=middle;whiteSpace=wrap;rounded=0;fontColor=#393C56;" parent="1" vertex="1">
          <mxGeometry x="1580.5" y="530" width="60" height="30" as="geometry" />
        </mxCell>
        <mxCell id="2HjCvc5ROPE-OSjrc0Rh-118" value="" style="endArrow=none;html=1;rounded=0;strokeColor=#E07A5F;fontColor=#393C56;fillColor=#F2CC8F;" parent="1" edge="1">
          <mxGeometry width="50" height="50" relative="1" as="geometry">
            <mxPoint x="1575.29" y="661" as="sourcePoint" />
            <mxPoint x="1575" y="540" as="targetPoint" />
          </mxGeometry>
        </mxCell>
        <mxCell id="2HjCvc5ROPE-OSjrc0Rh-120" value="" style="endArrow=classic;startArrow=classic;html=1;rounded=0;strokeColor=#E07A5F;fontColor=#393C56;fillColor=#F2CC8F;" parent="1" edge="1">
          <mxGeometry width="50" height="50" relative="1" as="geometry">
            <mxPoint x="1572.8" y="660" as="sourcePoint" />
            <mxPoint x="1648.21" y="660.26" as="targetPoint" />
          </mxGeometry>
        </mxCell>
        <mxCell id="2HjCvc5ROPE-OSjrc0Rh-121" value="&lt;font style=&quot;font-size: 7px;&quot; color=&quot;#ffffff&quot;&gt;Port 3389: allowed&lt;/font&gt;" style="text;strokeColor=none;align=center;fillColor=none;html=1;verticalAlign=middle;whiteSpace=wrap;rounded=0;fontColor=#393C56;" parent="1" vertex="1">
          <mxGeometry x="1580.5" y="637.5" width="60" height="30" as="geometry" />
        </mxCell>
        <mxCell id="2HjCvc5ROPE-OSjrc0Rh-122" value="" style="image;aspect=fixed;html=1;points=[];align=center;fontSize=12;image=img/lib/azure2/security/Multifactor_Authentication.svg;strokeColor=#E07A5F;fontColor=#393C56;fillColor=#F2CC8F;" parent="1" vertex="1">
          <mxGeometry x="1580.5" y="666" width="14.66" height="18" as="geometry" />
        </mxCell>
        <mxCell id="2HjCvc5ROPE-OSjrc0Rh-123" value="&lt;font style=&quot;font-size: 7px;&quot; color=&quot;#ffffff&quot;&gt;MFA Required&lt;/font&gt;" style="text;strokeColor=none;align=center;fillColor=none;html=1;verticalAlign=middle;whiteSpace=wrap;rounded=0;fontColor=#393C56;" parent="1" vertex="1">
          <mxGeometry x="1590.5" y="660" width="60" height="30" as="geometry" />
        </mxCell>
        <mxCell id="2HjCvc5ROPE-OSjrc0Rh-126" value="" style="image;aspect=fixed;html=1;points=[];align=center;fontSize=12;image=img/lib/azure2/azure_ecosystem/Azure_Hybrid_Center.svg;strokeColor=#E07A5F;fontColor=#393C56;fillColor=#F2CC8F;" parent="1" vertex="1">
          <mxGeometry x="1749.66" y="330" width="25.5" height="18" as="geometry" />
        </mxCell>
        <mxCell id="2HjCvc5ROPE-OSjrc0Rh-127" value="&lt;font style=&quot;font-size: 8px;&quot; color=&quot;#ffffff&quot;&gt;User&lt;/font&gt;" style="text;strokeColor=none;align=center;fillColor=none;html=1;verticalAlign=middle;whiteSpace=wrap;rounded=0;fontColor=#393C56;" parent="1" vertex="1">
          <mxGeometry x="1564.59" y="324" width="60" height="30" as="geometry" />
        </mxCell>
        <mxCell id="2HjCvc5ROPE-OSjrc0Rh-128" value="" style="endArrow=classic;startArrow=classic;html=1;rounded=0;strokeColor=#E07A5F;fontColor=#393C56;fillColor=#F2CC8F;" parent="1" edge="1">
          <mxGeometry width="50" height="50" relative="1" as="geometry">
            <mxPoint x="1762.13" y="438" as="sourcePoint" />
            <mxPoint x="1762.13" y="348" as="targetPoint" />
          </mxGeometry>
        </mxCell>
        <mxCell id="2HjCvc5ROPE-OSjrc0Rh-129" value="&lt;font style=&quot;font-size: 10px;&quot; color=&quot;#ffffff&quot;&gt;Port 1433 TCP: SQL inbound allowed&lt;/font&gt;" style="text;strokeColor=none;align=center;fillColor=none;html=1;verticalAlign=middle;whiteSpace=wrap;rounded=0;fontColor=#393C56;" parent="1" vertex="1">
          <mxGeometry x="1765" y="350" width="170" height="30" as="geometry" />
        </mxCell>
        <mxCell id="2HjCvc5ROPE-OSjrc0Rh-130" value="&lt;font color=&quot;#ffffff&quot; style=&quot;font-size: 10px;&quot;&gt;Port 22: SSH inbound allowed&lt;/font&gt;" style="text;strokeColor=none;align=center;fillColor=none;html=1;verticalAlign=middle;whiteSpace=wrap;rounded=0;fontColor=#393C56;" parent="1" vertex="1">
          <mxGeometry x="1767.67" y="367.11" width="140" height="30" as="geometry" />
        </mxCell>
        <mxCell id="2HjCvc5ROPE-OSjrc0Rh-132" value="" style="shape=stencil(lVjLctswDPwaXzEgwec5Tf8jM3FqT90447ivvy9UD2UBtjaTmyzvSiSwWIDayMP77ultu4n8fj4dv29/75/Pu4182cS4f91tT/uzXm3kcSMPL8fT9tvp+PP1+fL77WlCTlc/jr+mJ/y58HqjVCdW5L+XO5VS+3/j6wV/2L8u8UKxGXwIVGSd0DoJW0KizoCQKQRLqNT6OqF2yt0QYoRLqolysYRKESypBmK7B2ESsKSSqSdLSBQLIDBlmwZpVAAhJwp2SUlIQOJSI46WoGGNgBCp2j3kSCGtE3TFwUojF2KQB7nJQ1axVEBgqjZKRYjDOmESsyOUcec+IVGy4qtMDDIdww0hEYMohZsltUAR5CHIKJeZoIkD0mgU7Yp6pQpeoNq3C1JPQPU2J3XGdypIeVSs8ALzqKf7aR7FuHhBA1kOPkCKR0Jlajcb5ozw0W6gFypAROzdoqulgQTo87PFy3C0Fbwzlx6xgqhbf+yBAhCQeMfu6k7IKaiKx6MyLiMaCzwWqGS//gzy24bVLuJTIb5a3+oJtgMtDxf/TBUWZHL4CptB9QWj+kT7Ld5RVP/I5LJvHYrvQP8y1L7EA1+PJOFmPVCfrm9MQwmIz9x7F/EMsH5d59N8FYj3+kywB/Do1Au94ed/Dq/15RpAgf7ZxgQ3t6QOnx+iH6BqpAYSHDKJVXTBGQvNW0TR+QW11eg9VyckATWgom5uliijrO8T+mhyM0GgS4tQtYTUYZR0Hkpu4sJ50wnONaY0Txf3CX345jw1lhHo+5Wf/cQlgRqQhka9Wy2p20BCo26LfyonkAcdl4o7H2TYbRoP87nOE1SAlloa7jzXDwVgj615fCbGRyKXNoaDtbpJ8XhB+JukMZwwdTpx9Y/HLXVP56cM25+6s6tNhsctxbt5JYyJ8z5eu4U7zxFjfLPzgcD9LsbPK6EDAU3tzhXyR/hiFTofB9fwwdnpsJq1gH7uzP4hXi+uHwhe9ofD5fvC8n//QUFvXT5GyOM/);lineShape=1;strokeColor=default;fontColor=#393C56;fillColor=#F2CC8F;" parent="1" vertex="1">
          <mxGeometry x="1756.827204364567" y="416.4211167517642" width="10.84011563139232" height="9.967516604370422" as="geometry" />
        </mxCell>
        <mxCell id="2HjCvc5ROPE-OSjrc0Rh-133" value="" style="shape=stencil(lVjbUtwwDP2afdXYsiXbz5T+BzMsZaeUZRZ6+/sq3UkaKeR0eAsbneguHXEoN6+Pdy/HA6fXt8v56/Hn6f7t8VA+HZhPz4/Hy+nNng7l9lBuHs6X45fL+fvz/fXvl7tJcnr6dv4xfeHXFVcppwnE6ff1h0RZ/v7w+Sr+dHpeiedEvTp5JslAvlPz8kpN9+W5UREnn7GCIsTNAzoJ7wNqpj68B4U0AYCSeg2TkX0fIIWS97lgH2RQ80konUrZB2ihVhzAvBoVABoN9QChBnxoTNlHSawwEECJswcIzEMbMQ+aaLR9QC9UvAZVDFCqPnHmFcp0H3PUF0AjAXkYVkvdAbrlAbTPGJR9aQwzCZSGAZpP3Chz3HYaNFHyxTSECqgNU9G910OpgzAZgINNnTJywqo5AAacMqMRcwRAkyTW9yoO7yMqtRxVNFCvY5kSKwDUwJvUWRdiAEtMhKAw8RzFVaoTaFID1E01KRjH9jpqsE+gKNVNgWcSnLnQc8PGAChwi4nmDQD50KhzNKkgDZ36xmnGXS0jhrXilht+MlncOtYwNj1aUB4G1WBSm5fMntMaAH1e9Xth1U2PKhqWOm/NFQBmWihvpwAY+Bb1IRHAqB/KZlbaqEJR+iig93lrrqoV+dBlbvllpSgMq63FoKFbtSKTUsyDbbkMGsheh3nf8lzw7wNqnBq2qdG8b4nUm6SZEihv4zOB9Ykte+C0Lg25ABgmTpbKWRhTh1NDli27ACopaKBq68OH1VgfqtZqBMg7PfFKoKGYBp8HNm4MMj19z5e3cWO0gXizRY19J2BS1kgFjN/DIRC59IDrhGPWrFCQOSQ+ogrJVYosQ+drZUe8emOEFIqHrsE7YcPzCmTDaXOUQKqQYs/zTMl2xDWcbVTRGRlnVpp39I54ODoTZLQcs2q+g8iU2LiYOX7wYv6vuD38O84fTk9P19t+/T4e8/bT9R8B5fYP);lineShape=1;strokeColor=default;fontColor=#393C56;fillColor=#F2CC8F;" parent="1" vertex="1">
          <mxGeometry x="1755.8278453731152" y="417.4486016998885" width="11.172671397590305" height="9.666317300340152" as="geometry" />
        </mxCell>
        <mxCell id="2HjCvc5ROPE-OSjrc0Rh-134" value="&lt;font color=&quot;#ffffff&quot; style=&quot;font-size: 7px;&quot;&gt;Deny Outbound Traffic except for allowed destinations&lt;/font&gt;" style="text;strokeColor=none;align=center;fillColor=none;html=1;verticalAlign=middle;whiteSpace=wrap;rounded=0;fontColor=#393C56;" parent="1" vertex="1">
          <mxGeometry x="1765" y="406" width="125" height="30" as="geometry" />
        </mxCell>
        <mxCell id="2HjCvc5ROPE-OSjrc0Rh-137" value="" style="endArrow=none;dashed=1;html=1;rounded=0;strokeColor=#E07A5F;fontColor=#393C56;fillColor=#F2CC8F;" parent="1" edge="1">
          <mxGeometry width="50" height="50" relative="1" as="geometry">
            <mxPoint x="1576" y="400" as="sourcePoint" />
            <mxPoint x="1970" y="400" as="targetPoint" />
          </mxGeometry>
        </mxCell>
        <mxCell id="2HjCvc5ROPE-OSjrc0Rh-138" value="" style="endArrow=classic;html=1;rounded=0;strokeColor=#E07A5F;fontColor=#393C56;fillColor=#F2CC8F;" parent="1" edge="1">
          <mxGeometry width="50" height="50" relative="1" as="geometry">
            <mxPoint x="1970" y="400" as="sourcePoint" />
            <mxPoint x="1970" y="440" as="targetPoint" />
          </mxGeometry>
        </mxCell>
        <mxCell id="2HjCvc5ROPE-OSjrc0Rh-139" value="" style="image;aspect=fixed;html=1;points=[];align=center;fontSize=12;image=img/lib/azure2/networking/Application_Gateways.svg;strokeColor=#E07A5F;fontColor=#393C56;fillColor=#F2CC8F;rotation=-90;" parent="1" vertex="1">
          <mxGeometry x="1580.5" y="568" width="60" height="60" as="geometry" />
        </mxCell>
        <mxCell id="2HjCvc5ROPE-OSjrc0Rh-140" value="" style="image;aspect=fixed;html=1;points=[];align=center;fontSize=12;image=img/lib/azure2/networking/Firewalls.svg;strokeColor=#E07A5F;fontColor=#393C56;fillColor=#F2CC8F;" parent="1" vertex="1">
          <mxGeometry x="1430" y="558" width="71" height="60" as="geometry" />
        </mxCell>
        <mxCell id="2HjCvc5ROPE-OSjrc0Rh-142" value="&lt;font color=&quot;#ffffff&quot;&gt;FIrewall Subnet&lt;/font&gt;" style="text;strokeColor=none;align=center;fillColor=none;html=1;verticalAlign=middle;whiteSpace=wrap;rounded=0;fontColor=#393C56;" parent="1" vertex="1">
          <mxGeometry x="1480.0000000000002" y="463" width="60" height="30" as="geometry" />
        </mxCell>
        <mxCell id="2HjCvc5ROPE-OSjrc0Rh-143" value="&lt;font style=&quot;font-size: 10px;&quot; color=&quot;#ffffff&quot;&gt;10.0.5.0/24&lt;/font&gt;" style="text;strokeColor=none;align=center;fillColor=none;html=1;verticalAlign=middle;whiteSpace=wrap;rounded=0;fontColor=#393C56;" parent="1" vertex="1">
          <mxGeometry x="1480" y="492" width="60" height="30" as="geometry" />
        </mxCell>
        <mxCell id="2HjCvc5ROPE-OSjrc0Rh-144" style="edgeStyle=orthogonalEdgeStyle;html=1;startArrow=none;startFill=0;startSize=10;endArrow=none;endFill=0;endSize=10;strokeWidth=3;fontSize=11;fontColor=#FFFFFF;strokeColor=#FFFFFF;dashed=1;rounded=0;entryX=0.173;entryY=1.002;entryDx=0;entryDy=0;entryPerimeter=0;" parent="1" target="23046e2b9bb16c14-1" edge="1">
          <mxGeometry relative="1" as="geometry">
            <Array as="points">
              <mxPoint x="1375" y="773" />
            </Array>
            <mxPoint x="1352" y="772.62" as="sourcePoint" />
            <mxPoint x="1540" y="772.62" as="targetPoint" />
          </mxGeometry>
        </mxCell>
        <mxCell id="2HjCvc5ROPE-OSjrc0Rh-147" value="" style="endArrow=none;dashed=1;html=1;dashPattern=1 3;strokeWidth=4;rounded=0;strokeColor=#FFFFFF;fontColor=#393C56;fillColor=#f5f5f5;entryX=0.086;entryY=0.989;entryDx=0;entryDy=0;entryPerimeter=0;" parent="1" target="23046e2b9bb16c14-1" edge="1">
          <mxGeometry width="50" height="50" relative="1" as="geometry">
            <mxPoint x="1480" y="623" as="sourcePoint" />
            <mxPoint x="1540" y="729" as="targetPoint" />
          </mxGeometry>
        </mxCell>
        <mxCell id="2HjCvc5ROPE-OSjrc0Rh-148" value="" style="endArrow=none;dashed=1;html=1;rounded=0;strokeColor=#FFFFFF;fontColor=#393C56;fillColor=#F2CC8F;strokeWidth=4;" parent="1" edge="1">
          <mxGeometry width="50" height="50" relative="1" as="geometry">
            <mxPoint x="1501" y="597.62" as="sourcePoint" />
            <mxPoint x="1604" y="597.62" as="targetPoint" />
          </mxGeometry>
        </mxCell>
        <mxCell id="2HjCvc5ROPE-OSjrc0Rh-150" value="" style="image;aspect=fixed;html=1;points=[];align=center;fontSize=12;image=img/lib/azure2/networking/Azure_Firewall_Policy.svg;strokeColor=#E07A5F;fontColor=#393C56;fillColor=#F2CC8F;" parent="1" vertex="1">
          <mxGeometry x="1400" y="498.84000000000003" width="37.44" height="27.16" as="geometry" />
        </mxCell>
        <mxCell id="2HjCvc5ROPE-OSjrc0Rh-151" value="&lt;font style=&quot;font-size: 10px;&quot; color=&quot;#ffffff&quot;&gt;Firewall Policies&lt;/font&gt;" style="text;strokeColor=none;align=center;fillColor=none;html=1;verticalAlign=middle;whiteSpace=wrap;rounded=0;fontColor=#393C56;" parent="1" vertex="1">
          <mxGeometry x="1390" y="517" width="90" height="30" as="geometry" />
        </mxCell>
        <mxCell id="2HjCvc5ROPE-OSjrc0Rh-152" value="" style="endArrow=none;dashed=1;html=1;dashPattern=1 3;strokeWidth=4;rounded=0;strokeColor=#FFFFFF;fontColor=#393C56;fillColor=#F2CC8F;" parent="1" edge="1">
          <mxGeometry width="50" height="50" relative="1" as="geometry">
            <mxPoint x="1445" y="573" as="sourcePoint" />
            <mxPoint x="1430" y="535" as="targetPoint" />
          </mxGeometry>
        </mxCell>
        <mxCell id="2HjCvc5ROPE-OSjrc0Rh-153" value="&lt;font color=&quot;#ffffff&quot; style=&quot;font-size: 8px;&quot;&gt;L7 Loadbalancer&lt;/font&gt;" style="text;strokeColor=none;align=center;fillColor=none;html=1;verticalAlign=middle;whiteSpace=wrap;rounded=0;fontColor=#393C56;" parent="1" vertex="1">
          <mxGeometry x="1560.5" y="618" width="100" height="30" as="geometry" />
        </mxCell>
        <mxCell id="2HjCvc5ROPE-OSjrc0Rh-154" value="&lt;font color=&quot;#ffffff&quot; style=&quot;font-size: 8px;&quot;&gt;L4 Loadbalancer&lt;/font&gt;" style="text;strokeColor=none;align=center;fillColor=none;html=1;verticalAlign=middle;whiteSpace=wrap;rounded=0;fontColor=#393C56;" parent="1" vertex="1">
          <mxGeometry x="1767" y="612.5" width="70" height="30" as="geometry" />
        </mxCell>
        <mxCell id="2HjCvc5ROPE-OSjrc0Rh-155" value="&lt;font color=&quot;#ffffff&quot; style=&quot;font-size: 8px;&quot;&gt;L4 Loadbalancer&lt;/font&gt;" style="text;strokeColor=none;align=center;fillColor=none;html=1;verticalAlign=middle;whiteSpace=wrap;rounded=0;fontColor=#393C56;" parent="1" vertex="1">
          <mxGeometry x="1974.5" y="613.5" width="70" height="30" as="geometry" />
        </mxCell>
        <mxCell id="2HjCvc5ROPE-OSjrc0Rh-156" value="" style="verticalLabelPosition=bottom;html=1;verticalAlign=top;strokeColor=none;fillColor=#FFFFFF;shape=mxgraph.azure.virtual_machine;rounded=1;shadow=0;fontSize=12;fontColor=#000000;align=center;" parent="1" vertex="1">
          <mxGeometry x="2273.94" y="525" width="50" height="40" as="geometry" />
        </mxCell>
        <mxCell id="2HjCvc5ROPE-OSjrc0Rh-157" value="" style="verticalLabelPosition=bottom;html=1;verticalAlign=top;strokeColor=none;fillColor=#FFFFFF;shape=mxgraph.azure.virtual_machine;rounded=1;shadow=0;fontSize=12;fontColor=#000000;align=center;" parent="1" vertex="1">
          <mxGeometry x="2273.94" y="578" width="50" height="40" as="geometry" />
        </mxCell>
        <mxCell id="2HjCvc5ROPE-OSjrc0Rh-158" value="" style="verticalLabelPosition=bottom;html=1;verticalAlign=top;strokeColor=none;fillColor=#FFFFFF;shape=mxgraph.azure.virtual_machine;rounded=1;shadow=0;fontSize=12;fontColor=#000000;align=center;" parent="1" vertex="1">
          <mxGeometry x="2273.94" y="630" width="50" height="40" as="geometry" />
        </mxCell>
        <mxCell id="2HjCvc5ROPE-OSjrc0Rh-159" value="AKS" style="rounded=1;whiteSpace=wrap;html=1;shadow=0;strokeWidth=2;fillColor=none;fontSize=11;fontColor=#FFFFFF;align=center;strokeColor=#FFFFFF;dashed=1;verticalAlign=top;" parent="1" vertex="1">
          <mxGeometry x="2263.94" y="473" width="70" height="211" as="geometry" />
        </mxCell>
        <mxCell id="2HjCvc5ROPE-OSjrc0Rh-160" value="" style="shadow=0;dashed=0;html=1;strokeColor=none;labelPosition=center;verticalLabelPosition=bottom;verticalAlign=top;shape=mxgraph.mscae.cloud.azure_load_balancer_feature;fillColor=#FFFFFF;rounded=1;fontSize=12;fontColor=#000000;align=center;" parent="1" vertex="1">
          <mxGeometry x="2198.94" y="573" width="50" height="50" as="geometry" />
        </mxCell>
        <mxCell id="2HjCvc5ROPE-OSjrc0Rh-161" style="html=1;startArrow=none;startFill=0;startSize=10;endArrow=none;endFill=0;endSize=10;strokeWidth=3;fontSize=11;fontColor=#FFFFFF;strokeColor=#FFFFFF;rounded=0;exitX=0.796;exitY=0.241;exitPerimeter=0;" parent="1" source="2HjCvc5ROPE-OSjrc0Rh-160" target="2HjCvc5ROPE-OSjrc0Rh-156" edge="1">
          <mxGeometry relative="1" as="geometry" />
        </mxCell>
        <mxCell id="2HjCvc5ROPE-OSjrc0Rh-162" style="edgeStyle=orthogonalEdgeStyle;html=1;startArrow=none;startFill=0;startSize=10;endArrow=none;endFill=0;endSize=10;strokeWidth=3;fontSize=11;fontColor=#FFFFFF;strokeColor=#FFFFFF;rounded=0;" parent="1" source="2HjCvc5ROPE-OSjrc0Rh-160" target="2HjCvc5ROPE-OSjrc0Rh-157" edge="1">
          <mxGeometry relative="1" as="geometry" />
        </mxCell>
        <mxCell id="2HjCvc5ROPE-OSjrc0Rh-163" style="html=1;startArrow=none;startFill=0;startSize=10;endArrow=none;endFill=0;endSize=10;strokeWidth=3;fontSize=11;fontColor=#FFFFFF;strokeColor=#FFFFFF;rounded=0;exitX=0.789;exitY=0.767;exitPerimeter=0;" parent="1" source="2HjCvc5ROPE-OSjrc0Rh-160" target="2HjCvc5ROPE-OSjrc0Rh-158" edge="1">
          <mxGeometry relative="1" as="geometry" />
        </mxCell>
        <mxCell id="2HjCvc5ROPE-OSjrc0Rh-164" value="" style="shadow=0;dashed=0;html=1;strokeColor=none;shape=mxgraph.mscae.enterprise.lock;fillColor=#FFFFFF;rounded=0;fontSize=12;fontColor=#000000;align=center;" parent="1" vertex="1">
          <mxGeometry x="2203.94" y="468" width="39" height="50" as="geometry" />
        </mxCell>
        <mxCell id="2HjCvc5ROPE-OSjrc0Rh-166" value="&lt;font color=&quot;#ffffff&quot; style=&quot;font-size: 9px;&quot;&gt;10.0.4.0/24&lt;/font&gt;" style="text;strokeColor=none;align=center;fillColor=none;html=1;verticalAlign=middle;whiteSpace=wrap;rounded=0;fontColor=#393C56;" parent="1" vertex="1">
          <mxGeometry x="2268.94" y="488" width="60" height="30" as="geometry" />
        </mxCell>
        <mxCell id="2HjCvc5ROPE-OSjrc0Rh-167" value="" style="image;aspect=fixed;html=1;points=[];align=center;fontSize=12;image=img/lib/azure2/networking/Network_Security_Groups.svg;strokeColor=#E07A5F;fontColor=#393C56;fillColor=#F2CC8F;" parent="1" vertex="1">
          <mxGeometry x="2180" y="439" width="18.94" height="23" as="geometry" />
        </mxCell>
        <mxCell id="2HjCvc5ROPE-OSjrc0Rh-168" value="&lt;font style=&quot;font-size: 8px;&quot; color=&quot;#ffffff&quot;&gt;NSG-4&lt;/font&gt;" style="text;strokeColor=none;align=center;fillColor=none;html=1;verticalAlign=middle;whiteSpace=wrap;rounded=0;fontColor=#393C56;" parent="1" vertex="1">
          <mxGeometry x="2182.94" y="421" width="60" height="30" as="geometry" />
        </mxCell>
        <mxCell id="2HjCvc5ROPE-OSjrc0Rh-169" value="" style="endArrow=classic;html=1;rounded=0;strokeColor=#E07A5F;fontColor=#393C56;fillColor=#F2CC8F;exitX=0.361;exitY=0.872;exitDx=0;exitDy=0;exitPerimeter=0;" parent="1" source="2HjCvc5ROPE-OSjrc0Rh-174" edge="1">
          <mxGeometry width="50" height="50" relative="1" as="geometry">
            <mxPoint x="2183.94" y="400" as="sourcePoint" />
            <mxPoint x="2183.94" y="440" as="targetPoint" />
          </mxGeometry>
        </mxCell>
        <mxCell id="2HjCvc5ROPE-OSjrc0Rh-170" value="&lt;font color=&quot;#ffffff&quot; style=&quot;font-size: 8px;&quot;&gt;L4 Loadbalancer&lt;/font&gt;" style="text;strokeColor=none;align=center;fillColor=none;html=1;verticalAlign=middle;whiteSpace=wrap;rounded=0;fontColor=#393C56;" parent="1" vertex="1">
          <mxGeometry x="2188.44" y="613.5" width="70" height="30" as="geometry" />
        </mxCell>
        <mxCell id="2HjCvc5ROPE-OSjrc0Rh-171" style="html=1;startArrow=none;startFill=0;startSize=10;endArrow=none;endFill=0;endSize=10;strokeWidth=3;fontSize=11;fontColor=#FFFFFF;strokeColor=#FFFFFF;rounded=0;edgeStyle=elbowEdgeStyle;elbow=vertical;exitX=0;exitY=0.5;exitDx=0;exitDy=0;exitPerimeter=0;entryX=0.994;entryY=0.606;entryDx=0;entryDy=0;entryPerimeter=0;" parent="1" source="2HjCvc5ROPE-OSjrc0Rh-160" edge="1">
          <mxGeometry relative="1" as="geometry">
            <mxPoint x="2194.96" y="598" as="sourcePoint" />
            <mxPoint x="2129.96" y="598" as="targetPoint" />
          </mxGeometry>
        </mxCell>
        <mxCell id="2HjCvc5ROPE-OSjrc0Rh-174" value="" style="image;aspect=fixed;html=1;points=[];align=center;fontSize=12;image=img/lib/azure2/azure_ecosystem/Azure_Hybrid_Center.svg;strokeColor=#E07A5F;fontColor=#393C56;fillColor=#F2CC8F;" parent="1" vertex="1">
          <mxGeometry x="2173.44" y="324" width="25.5" height="18" as="geometry" />
        </mxCell>
        <mxCell id="2HjCvc5ROPE-OSjrc0Rh-175" value="&lt;font color=&quot;#ffffff&quot; style=&quot;font-size: 10px;&quot;&gt;Port 443: API Server Inbound allow&lt;/font&gt;" style="text;strokeColor=none;align=center;fillColor=none;html=1;verticalAlign=middle;whiteSpace=wrap;rounded=0;fontColor=#393C56;" parent="1" vertex="1">
          <mxGeometry x="2181.7200000000003" y="340" width="166.56" height="30" as="geometry" />
        </mxCell>
        <mxCell id="2HjCvc5ROPE-OSjrc0Rh-176" value="&lt;font style=&quot;font-size: 10px;&quot; color=&quot;#ffffff&quot;&gt;Port 30000-32767: NodePort Servcies Inbound allow&lt;/font&gt;" style="text;strokeColor=none;align=center;fillColor=none;html=1;verticalAlign=middle;whiteSpace=wrap;rounded=0;fontColor=#393C56;" parent="1" vertex="1">
          <mxGeometry x="2173.44" y="354" width="260" height="30" as="geometry" />
        </mxCell>
        <mxCell id="2HjCvc5ROPE-OSjrc0Rh-177" value="" style="image;aspect=fixed;html=1;points=[];align=center;fontSize=12;image=img/lib/azure2/compute/Kubernetes_Services.svg;strokeColor=#E07A5F;fontColor=#393C56;fillColor=#F2CC8F;" parent="1" vertex="1">
          <mxGeometry x="2297.67" y="385.45" width="36.27" height="32" as="geometry" />
        </mxCell>
        <mxCell id="2HjCvc5ROPE-OSjrc0Rh-178" value="" style="image;aspect=fixed;html=1;points=[];align=center;fontSize=12;image=img/lib/azure2/general/Browser.svg;strokeColor=#E07A5F;fontColor=#393C56;fillColor=#F2CC8F;" parent="1" vertex="1">
          <mxGeometry x="3020" y="389.95" width="28.75" height="23" as="geometry" />
        </mxCell>
        <mxCell id="2HjCvc5ROPE-OSjrc0Rh-179" value="" style="image;aspect=fixed;html=1;points=[];align=center;fontSize=12;image=img/lib/azure2/containers/Container_Instances.svg;strokeColor=#E07A5F;fontColor=#393C56;fillColor=#F2CC8F;" parent="1" vertex="1">
          <mxGeometry x="2360" y="452" width="24.12" height="26" as="geometry" />
        </mxCell>
        <mxCell id="2HjCvc5ROPE-OSjrc0Rh-180" value="" style="image;aspect=fixed;html=1;points=[];align=center;fontSize=12;image=img/lib/azure2/containers/Container_Registries.svg;strokeColor=#E07A5F;fontColor=#393C56;fillColor=#F2CC8F;" parent="1" vertex="1">
          <mxGeometry x="2406.56" y="453" width="33.44" height="30" as="geometry" />
        </mxCell>
        <mxCell id="2HjCvc5ROPE-OSjrc0Rh-181" value="" style="endArrow=none;dashed=1;html=1;rounded=0;strokeColor=#FFFFFF;fontColor=#393C56;fillColor=#F2CC8F;strokeWidth=4;entryX=0.039;entryY=0.488;entryDx=0;entryDy=0;entryPerimeter=0;" parent="1" source="2HjCvc5ROPE-OSjrc0Rh-177" target="2HjCvc5ROPE-OSjrc0Rh-178" edge="1">
          <mxGeometry width="50" height="50" relative="1" as="geometry">
            <mxPoint x="2348.28" y="401.11" as="sourcePoint" />
            <mxPoint x="2790" y="399" as="targetPoint" />
          </mxGeometry>
        </mxCell>
        <mxCell id="2HjCvc5ROPE-OSjrc0Rh-182" value="" style="endArrow=none;dashed=1;html=1;rounded=0;strokeColor=#FFFFFF;fontColor=#393C56;fillColor=#F2CC8F;strokeWidth=4;" parent="1" edge="1">
          <mxGeometry width="50" height="50" relative="1" as="geometry">
            <mxPoint x="2323.94" y="417.45" as="sourcePoint" />
            <mxPoint x="2373.94" y="457.45" as="targetPoint" />
            <Array as="points">
              <mxPoint x="2420" y="457" />
            </Array>
          </mxGeometry>
        </mxCell>
        <mxCell id="2HjCvc5ROPE-OSjrc0Rh-183" value="" style="endArrow=none;dashed=1;html=1;dashPattern=1 3;strokeWidth=4;rounded=0;strokeColor=#FFFFFF;fontColor=#393C56;fillColor=#F2CC8F;" parent="1" edge="1">
          <mxGeometry width="50" height="50" relative="1" as="geometry">
            <mxPoint x="2190" y="400" as="sourcePoint" />
            <mxPoint x="2290" y="401.11" as="targetPoint" />
          </mxGeometry>
        </mxCell>
        <mxCell id="2HjCvc5ROPE-OSjrc0Rh-184" value="&lt;font style=&quot;font-size: 10px;&quot; color=&quot;#ffffff&quot;&gt;Ingress Controller&lt;/font&gt;" style="text;strokeColor=none;align=center;fillColor=none;html=1;verticalAlign=middle;whiteSpace=wrap;rounded=0;fontColor=#393C56;" parent="1" vertex="1">
          <mxGeometry x="2986.5599999999995" y="407.5" width="95.62" height="30" as="geometry" />
        </mxCell>
        <mxCell id="2HjCvc5ROPE-OSjrc0Rh-185" value="&lt;font color=&quot;#ffffff&quot; style=&quot;font-size: 10px;&quot;&gt;Port 80: Inbound allow&lt;/font&gt;" style="text;strokeColor=none;align=center;fillColor=none;html=1;verticalAlign=middle;whiteSpace=wrap;rounded=0;fontColor=#393C56;" parent="1" vertex="1">
          <mxGeometry x="2177.67" y="370" width="120" height="30" as="geometry" />
        </mxCell>
        <mxCell id="2HjCvc5ROPE-OSjrc0Rh-186" value="" style="endArrow=none;dashed=1;html=1;dashPattern=1 3;strokeWidth=2;rounded=0;strokeColor=#E07A5F;fontColor=#393C56;fillColor=#F2CC8F;entryX=0.042;entryY=0.99;entryDx=0;entryDy=0;entryPerimeter=0;" parent="1" target="2HjCvc5ROPE-OSjrc0Rh-185" edge="1">
          <mxGeometry width="50" height="50" relative="1" as="geometry">
            <mxPoint x="1970" y="401.11" as="sourcePoint" />
            <mxPoint x="2150" y="401.11" as="targetPoint" />
          </mxGeometry>
        </mxCell>
        <mxCell id="2HjCvc5ROPE-OSjrc0Rh-187" value="&lt;font color=&quot;#ffffff&quot; style=&quot;font-size: 10px;&quot;&gt;Kubernets Services&lt;/font&gt;" style="text;strokeColor=none;align=center;fillColor=none;html=1;verticalAlign=middle;whiteSpace=wrap;rounded=0;fontColor=#393C56;" parent="1" vertex="1">
          <mxGeometry x="2322.06" y="397.11" width="100" height="30" as="geometry" />
        </mxCell>
        <mxCell id="2HjCvc5ROPE-OSjrc0Rh-189" value="&lt;font style=&quot;font-size: 10px;&quot; color=&quot;#ffffff&quot;&gt;Container Instances &amp;amp; Registeries&lt;/font&gt;" style="text;strokeColor=none;align=center;fillColor=none;html=1;verticalAlign=middle;whiteSpace=wrap;rounded=0;fontColor=#393C56;" parent="1" vertex="1">
          <mxGeometry x="2333.94" y="480" width="137.94" height="30" as="geometry" />
        </mxCell>
        <mxCell id="2HjCvc5ROPE-OSjrc0Rh-192" value="" style="rounded=1;whiteSpace=wrap;html=1;shadow=0;strokeWidth=2;fillColor=none;fontSize=12;fontColor=#000000;align=center;strokeColor=#FFFFFF;arcSize=10;" parent="1" vertex="1">
          <mxGeometry x="1380" y="452" width="170" height="278" as="geometry" />
        </mxCell>
        <mxCell id="2HjCvc5ROPE-OSjrc0Rh-193" value="" style="image;aspect=fixed;html=1;points=[];align=center;fontSize=12;image=img/lib/azure2/storage/Storage_Accounts.svg;strokeColor=#E07A5F;fontColor=#393C56;fillColor=#F2CC8F;" parent="1" vertex="1">
          <mxGeometry x="1695.41" y="696.8" width="29" height="23.2" as="geometry" />
        </mxCell>
        <mxCell id="2HjCvc5ROPE-OSjrc0Rh-194" value="" style="image;aspect=fixed;html=1;points=[];align=center;fontSize=12;image=img/lib/azure2/storage/Storage_Accounts.svg;strokeColor=#E07A5F;fontColor=#393C56;fillColor=#F2CC8F;" parent="1" vertex="1">
          <mxGeometry x="1876.67" y="696.8" width="31" height="24.8" as="geometry" />
        </mxCell>
        <mxCell id="2HjCvc5ROPE-OSjrc0Rh-195" value="" style="image;sketch=0;aspect=fixed;html=1;points=[];align=center;fontSize=12;image=img/lib/mscae/Blog_Storage.svg;strokeColor=#E07A5F;fontColor=#393C56;fillColor=#F2CC8F;" parent="1" vertex="1">
          <mxGeometry x="2095" y="696.8" width="20" height="18.4" as="geometry" />
        </mxCell>
        <mxCell id="2HjCvc5ROPE-OSjrc0Rh-196" value="" style="image;aspect=fixed;html=1;points=[];align=center;fontSize=12;image=img/lib/azure2/storage/Storage_Accounts.svg;strokeColor=#E07A5F;fontColor=#393C56;fillColor=#F2CC8F;" parent="1" vertex="1">
          <mxGeometry x="2302.94" y="696.8" width="31" height="24.8" as="geometry" />
        </mxCell>
        <mxCell id="2HjCvc5ROPE-OSjrc0Rh-197" value="&lt;font color=&quot;#ffffff&quot; style=&quot;font-size: 7px;&quot;&gt;General purpose storage v2&lt;/font&gt;" style="text;strokeColor=none;align=center;fillColor=none;html=1;verticalAlign=middle;whiteSpace=wrap;rounded=0;fontColor=#393C56;" parent="1" vertex="1">
          <mxGeometry x="1590.5" y="700" width="120" height="30" as="geometry" />
        </mxCell>
        <mxCell id="2HjCvc5ROPE-OSjrc0Rh-198" value="&lt;font color=&quot;#ffffff&quot; style=&quot;font-size: 7px;&quot;&gt;General purpose storage v2&lt;/font&gt;" style="text;strokeColor=none;align=center;fillColor=none;html=1;verticalAlign=middle;whiteSpace=wrap;rounded=0;fontColor=#393C56;" parent="1" vertex="1">
          <mxGeometry x="1771.88" y="700" width="120" height="30" as="geometry" />
        </mxCell>
        <mxCell id="2HjCvc5ROPE-OSjrc0Rh-199" value="&lt;font color=&quot;#ffffff&quot;&gt;&lt;span style=&quot;font-size: 7px;&quot;&gt;Blob Storage&lt;/span&gt;&lt;/font&gt;" style="text;strokeColor=none;align=center;fillColor=none;html=1;verticalAlign=middle;whiteSpace=wrap;rounded=0;fontColor=#393C56;" parent="1" vertex="1">
          <mxGeometry x="2010" y="696.8" width="120" height="30" as="geometry" />
        </mxCell>
        <mxCell id="2HjCvc5ROPE-OSjrc0Rh-200" value="&lt;font color=&quot;#ffffff&quot; style=&quot;font-size: 7px;&quot;&gt;General purpose storage v2&lt;/font&gt;" style="text;strokeColor=none;align=center;fillColor=none;html=1;verticalAlign=middle;whiteSpace=wrap;rounded=0;fontColor=#393C56;" parent="1" vertex="1">
          <mxGeometry x="2198.94" y="700" width="120" height="30" as="geometry" />
        </mxCell>
        <mxCell id="2HjCvc5ROPE-OSjrc0Rh-201" value="&lt;font color=&quot;#ffffff&quot; style=&quot;font-size: 10px;&quot;&gt;Port 443: inbound allowed&lt;/font&gt;" style="text;strokeColor=none;align=center;fillColor=none;html=1;verticalAlign=middle;whiteSpace=wrap;rounded=0;fontColor=#393C56;" parent="1" vertex="1">
          <mxGeometry x="1570" y="370" width="125.41" height="30" as="geometry" />
        </mxCell>
        <mxCell id="2HjCvc5ROPE-OSjrc0Rh-204" value="" style="endArrow=none;dashed=1;html=1;dashPattern=1 3;strokeWidth=3;rounded=0;strokeColor=#FFFFFF;fontColor=#393C56;fillColor=#F2CC8F;" parent="1" edge="1">
          <mxGeometry width="50" height="50" relative="1" as="geometry">
            <mxPoint x="1695.41" y="696.8" as="sourcePoint" />
            <mxPoint x="1685.41" y="676.8" as="targetPoint" />
          </mxGeometry>
        </mxCell>
        <mxCell id="2HjCvc5ROPE-OSjrc0Rh-205" value="" style="endArrow=none;dashed=1;html=1;dashPattern=1 3;strokeWidth=3;rounded=0;strokeColor=#FFFFFF;fontColor=#393C56;fillColor=#F2CC8F;" parent="1" edge="1">
          <mxGeometry width="50" height="50" relative="1" as="geometry">
            <mxPoint x="1886.67" y="696.8" as="sourcePoint" />
            <mxPoint x="1876.67" y="676.8" as="targetPoint" />
          </mxGeometry>
        </mxCell>
        <mxCell id="2HjCvc5ROPE-OSjrc0Rh-206" value="" style="endArrow=none;dashed=1;html=1;dashPattern=1 3;strokeWidth=3;rounded=0;strokeColor=#FFFFFF;fontColor=#393C56;fillColor=#F2CC8F;" parent="1" edge="1">
          <mxGeometry width="50" height="50" relative="1" as="geometry">
            <mxPoint x="2100" y="696.8" as="sourcePoint" />
            <mxPoint x="2090" y="676.8" as="targetPoint" />
          </mxGeometry>
        </mxCell>
        <mxCell id="2HjCvc5ROPE-OSjrc0Rh-207" value="" style="endArrow=none;dashed=1;html=1;dashPattern=1 3;strokeWidth=3;rounded=0;strokeColor=#FFFFFF;fontColor=#393C56;fillColor=#F2CC8F;" parent="1" edge="1">
          <mxGeometry width="50" height="50" relative="1" as="geometry">
            <mxPoint x="2310" y="696.8" as="sourcePoint" />
            <mxPoint x="2300" y="676.8" as="targetPoint" />
          </mxGeometry>
        </mxCell>
        <mxCell id="2HjCvc5ROPE-OSjrc0Rh-208" value="" style="image;aspect=fixed;html=1;points=[];align=center;fontSize=12;image=img/lib/azure2/intune/Azure_AD_Roles_and_Administrators.svg;strokeColor=#E07A5F;fontColor=#393C56;fillColor=#F2CC8F;imageBackground=#000000;" parent="1" vertex="1">
          <mxGeometry x="1990" y="804" width="39" height="39" as="geometry" />
        </mxCell>
        <mxCell id="2HjCvc5ROPE-OSjrc0Rh-209" value="&lt;font style=&quot;font-size: 10px;&quot; color=&quot;#ffffff&quot;&gt;Role-Based Access Control with AD identity protection&lt;/font&gt;" style="text;strokeColor=none;align=center;fillColor=none;html=1;verticalAlign=middle;whiteSpace=wrap;rounded=0;fontColor=#393C56;" parent="1" vertex="1">
          <mxGeometry x="1924.75" y="850" width="170.5" height="30" as="geometry" />
        </mxCell>
        <mxCell id="2HjCvc5ROPE-OSjrc0Rh-210" value="" style="endArrow=none;dashed=1;html=1;rounded=0;strokeColor=#FFFFFF;fontColor=#393C56;fillColor=#F2CC8F;entryX=0.97;entryY=0.98;entryDx=0;entryDy=0;entryPerimeter=0;strokeWidth=3;" parent="1" source="2HjCvc5ROPE-OSjrc0Rh-208" target="23046e2b9bb16c14-2" edge="1">
          <mxGeometry width="50" height="50" relative="1" as="geometry">
            <mxPoint x="1870" y="820" as="sourcePoint" />
            <mxPoint x="1805" y="740" as="targetPoint" />
          </mxGeometry>
        </mxCell>
        <mxCell id="2HjCvc5ROPE-OSjrc0Rh-215" value="" style="endArrow=none;dashed=1;html=1;rounded=0;strokeColor=#FFFFFF;fontColor=#393C56;fillColor=#F2CC8F;exitX=0.157;exitY=-0.032;exitDx=0;exitDy=0;exitPerimeter=0;strokeWidth=3;" parent="1" source="2HjCvc5ROPE-OSjrc0Rh-208" edge="1">
          <mxGeometry width="50" height="50" relative="1" as="geometry">
            <mxPoint x="2010" y="812" as="sourcePoint" />
            <mxPoint x="1906" y="732" as="targetPoint" />
          </mxGeometry>
        </mxCell>
        <mxCell id="2HjCvc5ROPE-OSjrc0Rh-216" value="" style="endArrow=none;dashed=1;html=1;rounded=0;strokeColor=#FFFFFF;fontColor=#393C56;fillColor=#F2CC8F;strokeWidth=3;" parent="1" source="2HjCvc5ROPE-OSjrc0Rh-208" edge="1">
          <mxGeometry width="50" height="50" relative="1" as="geometry">
            <mxPoint x="2030" y="800" as="sourcePoint" />
            <mxPoint x="2080" y="730" as="targetPoint" />
          </mxGeometry>
        </mxCell>
        <mxCell id="2HjCvc5ROPE-OSjrc0Rh-217" value="" style="endArrow=none;dashed=1;html=1;rounded=0;strokeColor=#FFFFFF;fontColor=#393C56;fillColor=#F2CC8F;entryX=0.38;entryY=1.109;entryDx=0;entryDy=0;entryPerimeter=0;strokeWidth=3;" parent="1" target="2HjCvc5ROPE-OSjrc0Rh-200" edge="1">
          <mxGeometry width="50" height="50" relative="1" as="geometry">
            <mxPoint x="2029" y="818" as="sourcePoint" />
            <mxPoint x="2204" y="748" as="targetPoint" />
          </mxGeometry>
        </mxCell>
        <mxCell id="2HjCvc5ROPE-OSjrc0Rh-218" value="&lt;font style=&quot;font-size: 8px;&quot; color=&quot;#ffffff&quot;&gt;Application Administrator&lt;/font&gt;" style="text;strokeColor=none;align=center;fillColor=none;html=1;verticalAlign=middle;whiteSpace=wrap;rounded=0;fontColor=#393C56;" parent="1" vertex="1">
          <mxGeometry x="1846" y="788" width="99" height="30" as="geometry" />
        </mxCell>
        <mxCell id="2HjCvc5ROPE-OSjrc0Rh-219" value="&lt;font color=&quot;#ffffff&quot; style=&quot;font-size: 9px;&quot;&gt;DB admin&lt;/font&gt;" style="text;strokeColor=none;align=center;fillColor=none;html=1;verticalAlign=middle;whiteSpace=wrap;rounded=0;fontColor=#393C56;" parent="1" vertex="1">
          <mxGeometry x="1950" y="750" width="60" height="30" as="geometry" />
        </mxCell>
        <mxCell id="2HjCvc5ROPE-OSjrc0Rh-220" value="&lt;font color=&quot;#ffffff&quot; style=&quot;font-size: 9px;&quot;&gt;AI admin&lt;/font&gt;" style="text;strokeColor=none;align=center;fillColor=none;html=1;verticalAlign=middle;whiteSpace=wrap;rounded=0;fontColor=#393C56;" parent="1" vertex="1">
          <mxGeometry x="2040" y="757" width="60" height="30" as="geometry" />
        </mxCell>
        <mxCell id="2HjCvc5ROPE-OSjrc0Rh-221" value="&lt;font color=&quot;#ffffff&quot; style=&quot;font-size: 9px;&quot;&gt;Azure Devops Admin&lt;/font&gt;" style="text;strokeColor=none;align=center;fillColor=none;html=1;verticalAlign=middle;whiteSpace=wrap;rounded=0;fontColor=#393C56;" parent="1" vertex="1">
          <mxGeometry x="2110" y="770" width="131.06" height="30" as="geometry" />
        </mxCell>
        <mxCell id="2HjCvc5ROPE-OSjrc0Rh-222" value="" style="image;aspect=fixed;html=1;points=[];align=center;fontSize=12;image=img/lib/azure2/analytics/Log_Analytics_Workspaces.svg;strokeColor=#E07A5F;fontColor=#393C56;fillColor=#F2CC8F;" parent="1" vertex="1">
          <mxGeometry x="2135" y="190" width="38.44" height="38.44" as="geometry" />
        </mxCell>
        <mxCell id="2HjCvc5ROPE-OSjrc0Rh-223" value="" style="image;aspect=fixed;html=1;points=[];align=center;fontSize=12;image=img/lib/azure2/management_governance/Monitor.svg;strokeColor=#E07A5F;fontColor=#393C56;fillColor=#F2CC8F;" parent="1" vertex="1">
          <mxGeometry x="1924.75" y="231.5" width="27" height="27" as="geometry" />
        </mxCell>
        <mxCell id="2HjCvc5ROPE-OSjrc0Rh-224" value="" style="image;aspect=fixed;html=1;points=[];align=center;fontSize=12;image=img/lib/azure2/networking/Network_Watcher.svg;strokeColor=#E07A5F;fontColor=#393C56;fillColor=#F2CC8F;" parent="1" vertex="1">
          <mxGeometry x="1404.72" y="319" width="28" height="28" as="geometry" />
        </mxCell>
        <mxCell id="2HjCvc5ROPE-OSjrc0Rh-225" value="" style="image;aspect=fixed;html=1;points=[];align=center;fontSize=12;image=img/lib/azure2/security/Azure_Sentinel.svg;strokeColor=#E07A5F;fontColor=#393C56;fillColor=#F2CC8F;" parent="1" vertex="1">
          <mxGeometry x="2100" y="299.71000000000004" width="20" height="24.29" as="geometry" />
        </mxCell>
        <mxCell id="2HjCvc5ROPE-OSjrc0Rh-226" value="" style="image;aspect=fixed;html=1;points=[];align=center;fontSize=12;image=img/lib/azure2/devops/Application_Insights.svg;strokeColor=#E07A5F;fontColor=#393C56;fillColor=#F2CC8F;" parent="1" vertex="1">
          <mxGeometry x="1770.59" y="196.55" width="24.41" height="34.95" as="geometry" />
        </mxCell>
        <mxCell id="2HjCvc5ROPE-OSjrc0Rh-227" value="" style="endArrow=none;dashed=1;html=1;dashPattern=1 3;strokeWidth=3;rounded=0;strokeColor=#FFFFFF;fontColor=#393C56;fillColor=#F2CC8F;" parent="1" target="2HjCvc5ROPE-OSjrc0Rh-223" edge="1">
          <mxGeometry width="50" height="50" relative="1" as="geometry">
            <mxPoint x="1781" y="213" as="sourcePoint" />
            <mxPoint x="1921" y="243" as="targetPoint" />
          </mxGeometry>
        </mxCell>
        <mxCell id="2HjCvc5ROPE-OSjrc0Rh-228" value="" style="endArrow=none;dashed=1;html=1;dashPattern=1 3;strokeWidth=3;rounded=0;strokeColor=#FFFFFF;fontColor=#393C56;fillColor=#F2CC8F;" parent="1" edge="1">
          <mxGeometry width="50" height="50" relative="1" as="geometry">
            <mxPoint x="1677.5" y="451" as="sourcePoint" />
            <mxPoint x="1781" y="211" as="targetPoint" />
          </mxGeometry>
        </mxCell>
        <mxCell id="2HjCvc5ROPE-OSjrc0Rh-229" value="" style="endArrow=none;dashed=1;html=1;dashPattern=1 3;strokeWidth=3;rounded=0;strokeColor=#FFFFFF;fontColor=#393C56;fillColor=#F2CC8F;" parent="1" target="2HjCvc5ROPE-OSjrc0Rh-222" edge="1">
          <mxGeometry width="50" height="50" relative="1" as="geometry">
            <mxPoint x="2104" y="300" as="sourcePoint" />
            <mxPoint x="2140" y="230" as="targetPoint" />
          </mxGeometry>
        </mxCell>
        <mxCell id="2HjCvc5ROPE-OSjrc0Rh-230" value="" style="endArrow=none;dashed=1;html=1;dashPattern=1 3;strokeWidth=3;rounded=0;strokeColor=#FFFFFF;fontColor=#393C56;fillColor=#F2CC8F;" parent="1" edge="1">
          <mxGeometry width="50" height="50" relative="1" as="geometry">
            <mxPoint x="1935" y="242.22" as="sourcePoint" />
            <mxPoint x="2134" y="213" as="targetPoint" />
          </mxGeometry>
        </mxCell>
        <mxCell id="2HjCvc5ROPE-OSjrc0Rh-232" value="" style="endArrow=none;dashed=1;html=1;dashPattern=1 3;strokeWidth=3;rounded=0;strokeColor=#FFFFFF;fontColor=#393C56;fillColor=#F2CC8F;exitX=0.407;exitY=0.55;exitDx=0;exitDy=0;exitPerimeter=0;" parent="1" source="23046e2b9bb16c14-29" edge="1">
          <mxGeometry width="50" height="50" relative="1" as="geometry">
            <mxPoint x="1669.75" y="568" as="sourcePoint" />
            <mxPoint x="1924.75" y="252" as="targetPoint" />
          </mxGeometry>
        </mxCell>
        <mxCell id="2HjCvc5ROPE-OSjrc0Rh-233" value="" style="endArrow=none;dashed=1;html=1;dashPattern=1 3;strokeWidth=3;rounded=0;strokeColor=#FFFFFF;fontColor=#393C56;fillColor=#F2CC8F;exitX=0.5;exitY=0;exitDx=0;exitDy=0;exitPerimeter=0;" parent="1" source="23046e2b9bb16c14-59" edge="1">
          <mxGeometry width="50" height="50" relative="1" as="geometry">
            <mxPoint x="1878" y="520" as="sourcePoint" />
            <mxPoint x="1935" y="254.71" as="targetPoint" />
          </mxGeometry>
        </mxCell>
        <mxCell id="2HjCvc5ROPE-OSjrc0Rh-234" value="" style="endArrow=none;dashed=1;html=1;dashPattern=1 3;strokeWidth=3;rounded=0;strokeColor=#FFFFFF;fontColor=#393C56;fillColor=#F2CC8F;exitX=0.25;exitY=1;exitDx=0;exitDy=0;" parent="1" source="2HjCvc5ROPE-OSjrc0Rh-63" edge="1">
          <mxGeometry width="50" height="50" relative="1" as="geometry">
            <mxPoint x="2063" y="510" as="sourcePoint" />
            <mxPoint x="1945" y="248.44" as="targetPoint" />
          </mxGeometry>
        </mxCell>
        <mxCell id="2HjCvc5ROPE-OSjrc0Rh-235" value="" style="endArrow=none;dashed=1;html=1;dashPattern=1 3;strokeWidth=3;rounded=0;strokeColor=#FFFFFF;fontColor=#393C56;fillColor=#F2CC8F;" parent="1" edge="1">
          <mxGeometry width="50" height="50" relative="1" as="geometry">
            <mxPoint x="2273.94" y="517.11" as="sourcePoint" />
            <mxPoint x="1953.94" y="247.11" as="targetPoint" />
          </mxGeometry>
        </mxCell>
        <mxCell id="2HjCvc5ROPE-OSjrc0Rh-236" value="&lt;font color=&quot;#ffffff&quot; style=&quot;font-size: 9px;&quot;&gt;Azure monitor&amp;nbsp;&lt;/font&gt;" style="text;strokeColor=none;align=center;fillColor=none;html=1;verticalAlign=middle;whiteSpace=wrap;rounded=0;fontColor=#393C56;" parent="1" vertex="1">
          <mxGeometry x="1898.25" y="210" width="80" height="30" as="geometry" />
        </mxCell>
        <mxCell id="2HjCvc5ROPE-OSjrc0Rh-238" value="&lt;font color=&quot;#ffffff&quot; style=&quot;font-size: 8px;&quot;&gt;Application Insight&lt;/font&gt;" style="text;strokeColor=none;align=center;fillColor=none;html=1;verticalAlign=middle;whiteSpace=wrap;rounded=0;fontColor=#393C56;" parent="1" vertex="1">
          <mxGeometry x="1760" y="220" width="102.33" height="30" as="geometry" />
        </mxCell>
        <mxCell id="2HjCvc5ROPE-OSjrc0Rh-239" value="&lt;font color=&quot;#ffffff&quot; style=&quot;font-size: 9px;&quot;&gt;Log Workspace&lt;/font&gt;" style="text;strokeColor=none;align=center;fillColor=none;html=1;verticalAlign=middle;whiteSpace=wrap;rounded=0;fontColor=#393C56;" parent="1" vertex="1">
          <mxGeometry x="2126.06" y="220" width="115" height="30" as="geometry" />
        </mxCell>
        <mxCell id="2HjCvc5ROPE-OSjrc0Rh-240" value="&lt;font color=&quot;#ffffff&quot; style=&quot;font-size: 9px;&quot;&gt;Senital&lt;/font&gt;" style="text;strokeColor=none;align=center;fillColor=none;html=1;verticalAlign=middle;whiteSpace=wrap;rounded=0;fontColor=#393C56;" parent="1" vertex="1">
          <mxGeometry x="2095.25" y="310" width="60" height="30" as="geometry" />
        </mxCell>
        <mxCell id="2HjCvc5ROPE-OSjrc0Rh-241" value="&lt;font color=&quot;#ffffff&quot; style=&quot;font-size: 7px;&quot;&gt;Network Watcher&lt;br&gt;(Monitoring all network resources)&lt;/font&gt;" style="text;strokeColor=none;align=center;fillColor=none;html=1;verticalAlign=middle;whiteSpace=wrap;rounded=0;fontColor=#393C56;" parent="1" vertex="1">
          <mxGeometry x="1335.22" y="342" width="167" height="30" as="geometry" />
        </mxCell>
        <mxCell id="2HjCvc5ROPE-OSjrc0Rh-242" value="" style="image;aspect=fixed;html=1;points=[];align=center;fontSize=12;image=img/lib/azure2/identity/Azure_AD_Identity_Protection.svg;strokeColor=#E07A5F;fontColor=#393C56;fillColor=#F2CC8F;" parent="1" vertex="1">
          <mxGeometry x="2026.9699999999998" y="808" width="46.07" height="42" as="geometry" />
        </mxCell>
        <mxCell id="2HjCvc5ROPE-OSjrc0Rh-245" value="" style="image;html=1;image=img/lib/clip_art/computers/Virtual_Machine_128x128.png;strokeColor=#E07A5F;fontColor=#393C56;fillColor=#F2CC8F;" parent="1" vertex="1">
          <mxGeometry x="2056.5" y="612.25" width="50" height="80.5" as="geometry" />
        </mxCell>
        <mxCell id="2HjCvc5ROPE-OSjrc0Rh-249" value="" style="rounded=1;whiteSpace=wrap;html=1;shadow=0;strokeWidth=2;fillColor=none;fontSize=12;fontColor=#000000;align=center;strokeColor=#FFFFFF;arcSize=9;" parent="1" vertex="1">
          <mxGeometry x="2184.5" y="453" width="161" height="278" as="geometry" />
        </mxCell>
        <mxCell id="2HjCvc5ROPE-OSjrc0Rh-257" value="" style="image;aspect=fixed;html=1;points=[];align=center;fontSize=12;image=img/lib/azure2/iot/IoT_Edge.svg;strokeColor=#E07A5F;fontColor=#393C56;fillColor=#F2CC8F;" parent="1" vertex="1">
          <mxGeometry x="1180" y="742" width="68" height="68" as="geometry" />
        </mxCell>
        <mxCell id="v4MokJmnBPbexWt60p0R-1" value="" style="image;aspect=fixed;html=1;points=[];align=center;fontSize=12;image=img/lib/azure2/iot/IoT_Hub.svg;" parent="1" vertex="1">
          <mxGeometry x="2161.69" y="930" width="49" height="49" as="geometry" />
        </mxCell>
        <mxCell id="v4MokJmnBPbexWt60p0R-2" value="&lt;font style=&quot;font-size: 10px;&quot; color=&quot;#ffffff&quot;&gt;IoT Hub Subnet&lt;/font&gt;" style="text;strokeColor=none;align=center;fillColor=none;html=1;verticalAlign=middle;whiteSpace=wrap;rounded=0;" parent="1" vertex="1">
          <mxGeometry x="2040" y="890" width="100" height="30" as="geometry" />
        </mxCell>
        <mxCell id="v4MokJmnBPbexWt60p0R-3" value="&lt;font color=&quot;#ffffff&quot; style=&quot;font-size: 10px;&quot;&gt;10.0.6.0/24&lt;/font&gt;" style="text;strokeColor=none;align=center;fillColor=none;html=1;verticalAlign=middle;whiteSpace=wrap;rounded=0;" parent="1" vertex="1">
          <mxGeometry x="2060" y="900" width="60" height="30" as="geometry" />
        </mxCell>
        <mxCell id="v4MokJmnBPbexWt60p0R-4" value="" style="rounded=1;whiteSpace=wrap;html=1;shadow=0;strokeWidth=2;fillColor=none;fontSize=12;fontColor=#000000;align=center;strokeColor=#FFFFFF;rotation=90;" parent="1" vertex="1">
          <mxGeometry x="2072.67" y="835.87" width="166.96" height="263.5" as="geometry" />
        </mxCell>
        <mxCell id="v4MokJmnBPbexWt60p0R-6" value="" style="image;aspect=fixed;html=1;points=[];align=center;fontSize=12;image=img/lib/azure2/integration/Event_Grid_Domains.svg;" parent="1" vertex="1">
          <mxGeometry x="2060" y="990" width="28.5" height="25.52" as="geometry" />
        </mxCell>
        <mxCell id="v4MokJmnBPbexWt60p0R-7" value="" style="image;aspect=fixed;html=1;points=[];align=center;fontSize=12;image=img/lib/azure2/iot/Logic_Apps.svg;" parent="1" vertex="1">
          <mxGeometry x="2056.5" y="930" width="27" height="20.96" as="geometry" />
        </mxCell>
        <mxCell id="v4MokJmnBPbexWt60p0R-8" value="" style="image;aspect=fixed;html=1;points=[];align=center;fontSize=12;image=img/lib/azure2/iot/Time_Series_Insights_Environments.svg;" parent="1" vertex="1">
          <mxGeometry x="2239.63" y="1010" width="23.94" height="24.3" as="geometry" />
        </mxCell>
        <mxCell id="v4MokJmnBPbexWt60p0R-9" value="" style="image;aspect=fixed;html=1;points=[];align=center;fontSize=12;image=img/lib/azure2/networking/Network_Security_Groups.svg;" parent="1" vertex="1">
          <mxGeometry x="2010" y="880" width="25" height="30.36" as="geometry" />
        </mxCell>
        <mxCell id="v4MokJmnBPbexWt60p0R-10" value="&lt;font style=&quot;font-size: 9px;&quot;&gt;NSG-5&lt;/font&gt;" style="text;strokeColor=none;align=center;fillColor=none;html=1;verticalAlign=middle;whiteSpace=wrap;rounded=0;" parent="1" vertex="1">
          <mxGeometry x="1970" y="890" width="56" height="30" as="geometry" />
        </mxCell>
        <mxCell id="v4MokJmnBPbexWt60p0R-11" value="&lt;font style=&quot;font-size: 8px;&quot;&gt;Logic Apps&amp;nbsp;&lt;/font&gt;" style="text;strokeColor=none;align=center;fillColor=none;html=1;verticalAlign=middle;whiteSpace=wrap;rounded=0;" parent="1" vertex="1">
          <mxGeometry x="2025.9999999999998" y="938" width="93.17" height="30" as="geometry" />
        </mxCell>
        <mxCell id="v4MokJmnBPbexWt60p0R-12" value="&lt;font style=&quot;font-size: 8px;&quot;&gt;Event Grid&lt;/font&gt;" style="text;strokeColor=none;align=center;fillColor=none;html=1;verticalAlign=middle;whiteSpace=wrap;rounded=0;" parent="1" vertex="1">
          <mxGeometry x="2042.5900000000001" y="1007.15" width="60" height="30" as="geometry" />
        </mxCell>
        <mxCell id="v4MokJmnBPbexWt60p0R-13" value="&lt;font style=&quot;font-size: 10px;&quot;&gt;IoT Hub&lt;/font&gt;" style="text;strokeColor=none;align=center;fillColor=none;html=1;verticalAlign=middle;whiteSpace=wrap;rounded=0;" parent="1" vertex="1">
          <mxGeometry x="2156.19" y="977.15" width="60" height="30" as="geometry" />
        </mxCell>
        <mxCell id="v4MokJmnBPbexWt60p0R-14" value="&lt;font style=&quot;font-size: 8px;&quot;&gt;Time Series Insights&lt;/font&gt;" style="text;strokeColor=none;align=center;fillColor=none;html=1;verticalAlign=middle;whiteSpace=wrap;rounded=0;" parent="1" vertex="1">
          <mxGeometry x="2177.67" y="1020" width="130" height="30" as="geometry" />
        </mxCell>
        <mxCell id="v4MokJmnBPbexWt60p0R-16" value="" style="endArrow=classic;startArrow=classic;html=1;rounded=0;" parent="1" edge="1">
          <mxGeometry width="50" height="50" relative="1" as="geometry">
            <mxPoint x="1805" y="894.6800000000001" as="sourcePoint" />
            <mxPoint x="2015" y="894.6800000000001" as="targetPoint" />
          </mxGeometry>
        </mxCell>
        <mxCell id="v4MokJmnBPbexWt60p0R-17" value="&lt;font style=&quot;font-size: 9px;&quot;&gt;Port 443: inbound allow&lt;/font&gt;" style="text;strokeColor=none;align=center;fillColor=none;html=1;verticalAlign=middle;whiteSpace=wrap;rounded=0;" parent="1" vertex="1">
          <mxGeometry x="1841" y="890" width="139" height="30" as="geometry" />
        </mxCell>
        <mxCell id="v4MokJmnBPbexWt60p0R-19" value="&lt;font style=&quot;font-size: 9px;&quot;&gt;Port 5671: AMQP over TLS inbound allow&lt;/font&gt;" style="text;strokeColor=none;align=center;fillColor=none;html=1;verticalAlign=middle;whiteSpace=wrap;rounded=0;" parent="1" vertex="1">
          <mxGeometry x="1795" y="900" width="220" height="30" as="geometry" />
        </mxCell>
        <mxCell id="v4MokJmnBPbexWt60p0R-20" value="&lt;font style=&quot;font-size: 9px;&quot;&gt;Port 8883:MQTT over TLS inbound allow&lt;/font&gt;" style="text;strokeColor=none;align=center;fillColor=none;html=1;verticalAlign=middle;whiteSpace=wrap;rounded=0;" parent="1" vertex="1">
          <mxGeometry x="1815" y="910.36" width="180" height="30" as="geometry" />
        </mxCell>
        <mxCell id="v4MokJmnBPbexWt60p0R-21" value="" style="endArrow=none;dashed=1;html=1;dashPattern=1 3;strokeWidth=3;rounded=0;" parent="1" edge="1">
          <mxGeometry width="50" height="50" relative="1" as="geometry">
            <mxPoint x="2083.5" y="943" as="sourcePoint" />
            <mxPoint x="2170.06" y="963" as="targetPoint" />
          </mxGeometry>
        </mxCell>
        <mxCell id="v4MokJmnBPbexWt60p0R-22" value="" style="endArrow=none;dashed=1;html=1;dashPattern=1 3;strokeWidth=3;rounded=0;" parent="1" edge="1">
          <mxGeometry width="50" height="50" relative="1" as="geometry">
            <mxPoint x="2085.25" y="1012.15" as="sourcePoint" />
            <mxPoint x="2165.25" y="972.15" as="targetPoint" />
          </mxGeometry>
        </mxCell>
        <mxCell id="v4MokJmnBPbexWt60p0R-23" value="" style="endArrow=none;dashed=1;html=1;dashPattern=1 3;strokeWidth=2;rounded=0;" parent="1" edge="1">
          <mxGeometry width="50" height="50" relative="1" as="geometry">
            <mxPoint x="2188.44" y="970" as="sourcePoint" />
            <mxPoint x="2250.41" y="1010" as="targetPoint" />
          </mxGeometry>
        </mxCell>
        <mxCell id="v4MokJmnBPbexWt60p0R-24" value="" style="endArrow=none;dashed=1;html=1;rounded=0;strokeWidth=3;" parent="1" edge="1">
          <mxGeometry width="50" height="50" relative="1" as="geometry">
            <mxPoint x="1210" y="1140" as="sourcePoint" />
            <mxPoint x="1213.17" y="793" as="targetPoint" />
          </mxGeometry>
        </mxCell>
        <mxCell id="v4MokJmnBPbexWt60p0R-25" value="" style="endArrow=none;dashed=1;html=1;rounded=0;strokeWidth=3;" parent="1" edge="1">
          <mxGeometry width="50" height="50" relative="1" as="geometry">
            <mxPoint x="1212" y="1140" as="sourcePoint" />
            <mxPoint x="2170" y="1140" as="targetPoint" />
          </mxGeometry>
        </mxCell>
        <mxCell id="v4MokJmnBPbexWt60p0R-26" value="" style="endArrow=none;dashed=1;html=1;rounded=0;entryX=1.001;entryY=0.454;entryDx=0;entryDy=0;entryPerimeter=0;strokeWidth=2;" parent="1" target="v4MokJmnBPbexWt60p0R-4" edge="1">
          <mxGeometry width="50" height="50" relative="1" as="geometry">
            <mxPoint x="2170" y="1140" as="sourcePoint" />
            <mxPoint x="2173.71" y="1080" as="targetPoint" />
          </mxGeometry>
        </mxCell>
        <mxCell id="v4MokJmnBPbexWt60p0R-27" value="&lt;font style=&quot;font-size: 12px;&quot;&gt;IoT Edge&lt;/font&gt;" style="text;strokeColor=none;align=center;fillColor=none;html=1;verticalAlign=middle;whiteSpace=wrap;rounded=0;" parent="1" vertex="1">
          <mxGeometry x="1188" y="804" width="60" height="30" as="geometry" />
        </mxCell>
        <mxCell id="v4MokJmnBPbexWt60p0R-28" value="" style="endArrow=none;dashed=1;html=1;rounded=0;entryX=-0.009;entryY=0.359;entryDx=0;entryDy=0;entryPerimeter=0;exitX=0.87;exitY=1;exitDx=0;exitDy=0;exitPerimeter=0;strokeWidth=2;" parent="1" target="v4MokJmnBPbexWt60p0R-4" edge="1">
          <mxGeometry width="50" height="50" relative="1" as="geometry">
            <mxPoint x="2110.07" y="730" as="sourcePoint" />
            <mxPoint x="2182.94" y="843" as="targetPoint" />
          </mxGeometry>
        </mxCell>
        <mxCell id="v4MokJmnBPbexWt60p0R-29" value="" style="image;aspect=fixed;html=1;points=[];align=center;fontSize=12;image=img/lib/azure2/ai_machine_learning/Machine_Learning_Studio_Workspaces.svg;" parent="1" vertex="1">
          <mxGeometry x="2378.06" y="838" width="44" height="44" as="geometry" />
        </mxCell>
        <mxCell id="v4MokJmnBPbexWt60p0R-30" value="" style="image;aspect=fixed;html=1;points=[];align=center;fontSize=12;image=img/lib/azure2/ai_machine_learning/Machine_Learning.svg;" parent="1" vertex="1">
          <mxGeometry x="2618" y="765.5" width="24" height="25.5" as="geometry" />
        </mxCell>
        <mxCell id="v4MokJmnBPbexWt60p0R-31" value="" style="image;aspect=fixed;html=1;points=[];align=center;fontSize=12;image=img/lib/azure2/storage/Storage_Accounts.svg;strokeColor=#E07A5F;fontColor=#393C56;fillColor=#F2CC8F;" parent="1" vertex="1">
          <mxGeometry x="2239.63" y="898.32" width="27.1" height="21.68" as="geometry" />
        </mxCell>
        <mxCell id="v4MokJmnBPbexWt60p0R-32" value="" style="endArrow=none;dashed=1;html=1;dashPattern=1 3;strokeWidth=2;rounded=0;entryX=0.044;entryY=0.831;entryDx=0;entryDy=0;entryPerimeter=0;" parent="1" target="v4MokJmnBPbexWt60p0R-31" edge="1">
          <mxGeometry width="50" height="50" relative="1" as="geometry">
            <mxPoint x="2210.69" y="935.36" as="sourcePoint" />
            <mxPoint x="2232.66" y="915.36" as="targetPoint" />
          </mxGeometry>
        </mxCell>
        <mxCell id="v4MokJmnBPbexWt60p0R-33" value="&lt;font style=&quot;font-size: 8px;&quot;&gt;Storage&lt;/font&gt;" style="text;strokeColor=none;align=center;fillColor=none;html=1;verticalAlign=middle;whiteSpace=wrap;rounded=0;" parent="1" vertex="1">
          <mxGeometry x="2191.6" y="910.36" width="120" height="30" as="geometry" />
        </mxCell>
        <mxCell id="v4MokJmnBPbexWt60p0R-34" value="" style="image;aspect=fixed;html=1;points=[];align=center;fontSize=12;image=img/lib/azure2/analytics/Azure_Databricks.svg;" parent="1" vertex="1">
          <mxGeometry x="2660" y="843.31" width="22.8" height="24.69" as="geometry" />
        </mxCell>
        <mxCell id="v4MokJmnBPbexWt60p0R-36" value="" style="image;sketch=0;aspect=fixed;html=1;points=[];align=center;fontSize=12;image=img/lib/mscae/Key_Vaults.svg;" parent="1" vertex="1">
          <mxGeometry x="2540" y="701.83" width="28" height="29.17" as="geometry" />
        </mxCell>
        <mxCell id="v4MokJmnBPbexWt60p0R-37" value="" style="image;aspect=fixed;html=1;points=[];align=center;fontSize=12;image=img/lib/azure2/devops/Azure_DevOps.svg;" parent="1" vertex="1">
          <mxGeometry x="2612" y="920" width="30" height="30" as="geometry" />
        </mxCell>
        <mxCell id="v4MokJmnBPbexWt60p0R-38" value="" style="image;aspect=fixed;html=1;points=[];align=center;fontSize=12;image=img/lib/azure2/devops/API_Connections.svg;" parent="1" vertex="1">
          <mxGeometry x="2550" y="1010" width="28" height="18.66" as="geometry" />
        </mxCell>
        <mxCell id="v4MokJmnBPbexWt60p0R-39" value="" style="endArrow=none;dashed=1;html=1;dashPattern=1 3;strokeWidth=2;rounded=0;entryX=0.347;entryY=0.927;entryDx=0;entryDy=0;entryPerimeter=0;" parent="1" source="v4MokJmnBPbexWt60p0R-29" target="v4MokJmnBPbexWt60p0R-36" edge="1">
          <mxGeometry width="50" height="50" relative="1" as="geometry">
            <mxPoint x="2460" y="820" as="sourcePoint" />
            <mxPoint x="2510" y="770" as="targetPoint" />
          </mxGeometry>
        </mxCell>
        <mxCell id="v4MokJmnBPbexWt60p0R-40" value="" style="endArrow=none;dashed=1;html=1;dashPattern=1 3;strokeWidth=2;rounded=0;entryX=0.31;entryY=0.916;entryDx=0;entryDy=0;entryPerimeter=0;" parent="1" source="v4MokJmnBPbexWt60p0R-29" target="v4MokJmnBPbexWt60p0R-30" edge="1">
          <mxGeometry width="50" height="50" relative="1" as="geometry">
            <mxPoint x="2490" y="870" as="sourcePoint" />
            <mxPoint x="2540" y="820" as="targetPoint" />
          </mxGeometry>
        </mxCell>
        <mxCell id="v4MokJmnBPbexWt60p0R-41" value="" style="endArrow=none;dashed=1;html=1;dashPattern=1 3;strokeWidth=2;rounded=0;" parent="1" source="v4MokJmnBPbexWt60p0R-29" target="v4MokJmnBPbexWt60p0R-34" edge="1">
          <mxGeometry width="50" height="50" relative="1" as="geometry">
            <mxPoint x="2480" y="910" as="sourcePoint" />
            <mxPoint x="2530" y="860" as="targetPoint" />
          </mxGeometry>
        </mxCell>
        <mxCell id="v4MokJmnBPbexWt60p0R-42" value="" style="endArrow=none;dashed=1;html=1;dashPattern=1 3;strokeWidth=2;rounded=0;" parent="1" source="v4MokJmnBPbexWt60p0R-29" target="v4MokJmnBPbexWt60p0R-37" edge="1">
          <mxGeometry width="50" height="50" relative="1" as="geometry">
            <mxPoint x="2460" y="950" as="sourcePoint" />
            <mxPoint x="2510" y="900" as="targetPoint" />
          </mxGeometry>
        </mxCell>
        <mxCell id="v4MokJmnBPbexWt60p0R-43" value="" style="endArrow=none;dashed=1;html=1;dashPattern=1 3;strokeWidth=2;rounded=0;exitX=0.963;exitY=0.831;exitDx=0;exitDy=0;exitPerimeter=0;" parent="1" source="v4MokJmnBPbexWt60p0R-29" target="v4MokJmnBPbexWt60p0R-38" edge="1">
          <mxGeometry width="50" height="50" relative="1" as="geometry">
            <mxPoint x="2410" y="970" as="sourcePoint" />
            <mxPoint x="2460" y="920" as="targetPoint" />
          </mxGeometry>
        </mxCell>
        <mxCell id="v4MokJmnBPbexWt60p0R-44" value="&lt;font style=&quot;font-size: 8px;&quot;&gt;Key Vault&lt;/font&gt;" style="text;strokeColor=none;align=center;fillColor=none;html=1;verticalAlign=middle;whiteSpace=wrap;rounded=0;" parent="1" vertex="1">
          <mxGeometry x="2540" y="720" width="60" height="30" as="geometry" />
        </mxCell>
        <mxCell id="v4MokJmnBPbexWt60p0R-45" value="&lt;font style=&quot;font-size: 8px;&quot;&gt;Azure ML&lt;/font&gt;" style="text;strokeColor=none;align=center;fillColor=none;html=1;verticalAlign=middle;whiteSpace=wrap;rounded=0;" parent="1" vertex="1">
          <mxGeometry x="2610" y="780.5" width="60" height="30" as="geometry" />
        </mxCell>
        <mxCell id="v4MokJmnBPbexWt60p0R-46" value="&lt;font style=&quot;font-size: 8px;&quot;&gt;Azure Databricks&lt;/font&gt;" style="text;strokeColor=none;align=center;fillColor=none;html=1;verticalAlign=middle;whiteSpace=wrap;rounded=0;" parent="1" vertex="1">
          <mxGeometry x="2610" y="852" width="120" height="30" as="geometry" />
        </mxCell>
        <mxCell id="v4MokJmnBPbexWt60p0R-47" value="&lt;font style=&quot;font-size: 9px;&quot;&gt;Azure Devops&lt;/font&gt;" style="text;strokeColor=none;align=center;fillColor=none;html=1;verticalAlign=middle;whiteSpace=wrap;rounded=0;" parent="1" vertex="1">
          <mxGeometry x="2600" y="940.36" width="60" height="30" as="geometry" />
        </mxCell>
        <mxCell id="v4MokJmnBPbexWt60p0R-48" value="&lt;font style=&quot;font-size: 9px;&quot;&gt;API services&lt;/font&gt;" style="text;strokeColor=none;align=center;fillColor=none;html=1;verticalAlign=middle;whiteSpace=wrap;rounded=0;" parent="1" vertex="1">
          <mxGeometry x="2514" y="1020" width="100" height="30" as="geometry" />
        </mxCell>
        <mxCell id="v4MokJmnBPbexWt60p0R-49" value="&lt;font style=&quot;font-size: 10px;&quot;&gt;ML Studio Workspaces&lt;/font&gt;" style="text;strokeColor=none;align=center;fillColor=none;html=1;verticalAlign=middle;whiteSpace=wrap;rounded=0;" parent="1" vertex="1">
          <mxGeometry x="2362.06" y="880" width="60" height="30" as="geometry" />
        </mxCell>
        <mxCell id="v4MokJmnBPbexWt60p0R-50" value="ML Subnet" style="text;strokeColor=none;align=center;fillColor=none;html=1;verticalAlign=middle;whiteSpace=wrap;rounded=0;" parent="1" vertex="1">
          <mxGeometry x="2384.12" y="671.8299999999999" width="60" height="30" as="geometry" />
        </mxCell>
        <mxCell id="v4MokJmnBPbexWt60p0R-51" value="&lt;font style=&quot;font-size: 10px;&quot;&gt;10.0.7.0/24&lt;/font&gt;" style="text;strokeColor=none;align=center;fillColor=none;html=1;verticalAlign=middle;whiteSpace=wrap;rounded=0;" parent="1" vertex="1">
          <mxGeometry x="2380" y="684" width="60" height="30" as="geometry" />
        </mxCell>
        <mxCell id="v4MokJmnBPbexWt60p0R-52" value="" style="rounded=1;whiteSpace=wrap;html=1;shadow=0;strokeWidth=2;fillColor=none;fontSize=12;fontColor=#000000;align=center;strokeColor=#FFFFFF;arcSize=9;" parent="1" vertex="1">
          <mxGeometry x="2350" y="666" width="380" height="420" as="geometry" />
        </mxCell>
        <mxCell id="v4MokJmnBPbexWt60p0R-54" value="" style="endArrow=none;dashed=1;html=1;rounded=0;entryX=0.005;entryY=0.481;entryDx=0;entryDy=0;entryPerimeter=0;exitX=0.992;exitY=0.965;exitDx=0;exitDy=0;exitPerimeter=0;strokeWidth=3;" parent="1" target="v4MokJmnBPbexWt60p0R-52" edge="1">
          <mxGeometry width="50" height="50" relative="1" as="geometry">
            <mxPoint x="2129.712" y="720.27" as="sourcePoint" />
            <mxPoint x="2320" y="770" as="targetPoint" />
          </mxGeometry>
        </mxCell>
        <mxCell id="v4MokJmnBPbexWt60p0R-55" value="" style="image;aspect=fixed;html=1;points=[];align=center;fontSize=12;image=img/lib/azure2/networking/Network_Security_Groups.svg;" parent="1" vertex="1">
          <mxGeometry x="2350" y="647.57" width="30" height="36.43" as="geometry" />
        </mxCell>
        <mxCell id="v4MokJmnBPbexWt60p0R-56" value="&lt;font style=&quot;font-size: 9px;&quot;&gt;NSG-6&lt;/font&gt;" style="text;strokeColor=none;align=center;fillColor=none;html=1;verticalAlign=middle;whiteSpace=wrap;rounded=0;" parent="1" vertex="1">
          <mxGeometry x="2362.06" y="633" width="60" height="30" as="geometry" />
        </mxCell>
        <mxCell id="Pj-kJ5vd5oR4fu3kcaTG-1" value="Firewall" style="text;strokeColor=none;align=center;fillColor=none;html=1;verticalAlign=middle;whiteSpace=wrap;rounded=0;" parent="1" vertex="1">
          <mxGeometry x="1420" y="601" width="60" height="50" as="geometry" />
        </mxCell>
        <mxCell id="x657ODO314WftXFruGLe-1" value="" style="verticalLabelPosition=bottom;html=1;verticalAlign=top;align=center;strokeColor=none;fillColor=#00BEF2;shape=mxgraph.azure.virtual_machine;" parent="1" vertex="1">
          <mxGeometry x="2060" y="530" width="40" height="35" as="geometry" />
        </mxCell>
        <mxCell id="wXBzjPAfJz9evx8sOBb0-1" value="&lt;font style=&quot;font-size: 8px;&quot;&gt;D2as_v5&lt;br&gt;&lt;/font&gt;" style="text;strokeColor=none;align=center;fillColor=none;html=1;verticalAlign=middle;whiteSpace=wrap;rounded=0;" parent="1" vertex="1">
          <mxGeometry x="2020" y="555.5" width="120" height="30" as="geometry" />
        </mxCell>
        <mxCell id="wXBzjPAfJz9evx8sOBb0-2" value="&lt;font style=&quot;font-size: 8px;&quot;&gt;Simple Construct&lt;/font&gt;" style="text;strokeColor=none;align=center;fillColor=none;html=1;verticalAlign=middle;whiteSpace=wrap;rounded=0;" parent="1" vertex="1">
          <mxGeometry x="2030" y="565" width="110" height="30" as="geometry" />
        </mxCell>
        <mxCell id="wXBzjPAfJz9evx8sOBb0-3" value="" style="sketch=0;aspect=fixed;pointerEvents=1;shadow=0;dashed=0;html=1;strokeColor=none;labelPosition=center;verticalLabelPosition=bottom;verticalAlign=top;align=center;fillColor=#00188D;shape=mxgraph.azure.virtual_machine_feature" parent="1" vertex="1">
          <mxGeometry x="2060" y="585.5" width="40" height="36" as="geometry" />
        </mxCell>
        <mxCell id="wXBzjPAfJz9evx8sOBb0-4" value="&lt;font style=&quot;font-size: 8px;&quot;&gt;E2as_v5&lt;/font&gt;" style="text;strokeColor=none;align=center;fillColor=none;html=1;verticalAlign=middle;whiteSpace=wrap;rounded=0;" parent="1" vertex="1">
          <mxGeometry x="2050" y="607.5" width="60" height="30" as="geometry" />
        </mxCell>
        <mxCell id="wXBzjPAfJz9evx8sOBb0-5" value="&lt;font style=&quot;font-size: 8px;&quot;&gt;Medium Construct&lt;/font&gt;" style="text;strokeColor=none;align=center;fillColor=none;html=1;verticalAlign=middle;whiteSpace=wrap;rounded=0;" parent="1" vertex="1">
          <mxGeometry x="2035" y="613.5" width="110" height="30" as="geometry" />
        </mxCell>
        <mxCell id="wXBzjPAfJz9evx8sOBb0-6" value="&lt;font style=&quot;font-size: 8px;&quot;&gt;L8as_v3&lt;/font&gt;" style="text;strokeColor=none;align=center;fillColor=none;html=1;verticalAlign=middle;whiteSpace=wrap;rounded=0;" parent="1" vertex="1">
          <mxGeometry x="2066.06" y="654" width="60" height="30" as="geometry" />
        </mxCell>
        <mxCell id="wXBzjPAfJz9evx8sOBb0-7" value="&lt;font style=&quot;font-size: 8px;&quot;&gt;Complex Construct&lt;/font&gt;" style="text;strokeColor=none;align=center;fillColor=none;html=1;verticalAlign=middle;whiteSpace=wrap;rounded=0;" parent="1" vertex="1">
          <mxGeometry x="2026" y="663" width="120" height="30" as="geometry" />
        </mxCell>
        <mxCell id="wXBzjPAfJz9evx8sOBb0-8" value="AI Model Server" style="rounded=1;whiteSpace=wrap;html=1;shadow=0;strokeWidth=2;fillColor=none;fontSize=11;fontColor=#FFFFFF;align=center;strokeColor=#FFFFFF;dashed=1;verticalAlign=top;" parent="1" vertex="1">
          <mxGeometry x="2050" y="473" width="70" height="217" as="geometry" />
        </mxCell>
        <mxCell id="wXBzjPAfJz9evx8sOBb0-11" value="Azure OpenAI Extensions Chat Completions API" style="rounded=0;whiteSpace=wrap;html=1;" parent="1" vertex="1">
          <mxGeometry x="2400" y="184" width="120" height="60" as="geometry" />
        </mxCell>
        <mxCell id="wXBzjPAfJz9evx8sOBb0-12" value="" style="image;aspect=fixed;html=1;points=[];align=center;fontSize=12;image=img/lib/azure2/security/Conditional_Access.svg;" parent="1" vertex="1">
          <mxGeometry x="2646.56" y="192" width="36.24" height="44" as="geometry" />
        </mxCell>
        <mxCell id="wXBzjPAfJz9evx8sOBb0-13" value="" style="image;aspect=fixed;html=1;points=[];align=center;fontSize=12;image=img/lib/azure2/general/Website_Staging.svg;" parent="1" vertex="1">
          <mxGeometry x="2820" y="184.72" width="44.8" height="49" as="geometry" />
        </mxCell>
        <mxCell id="wXBzjPAfJz9evx8sOBb0-14" value="" style="endArrow=none;dashed=1;html=1;rounded=0;" parent="1" edge="1">
          <mxGeometry width="50" height="50" relative="1" as="geometry">
            <mxPoint x="2459.38" y="184" as="sourcePoint" />
            <mxPoint x="2460.63" y="44" as="targetPoint" />
          </mxGeometry>
        </mxCell>
        <mxCell id="wXBzjPAfJz9evx8sOBb0-15" value="" style="endArrow=none;dashed=1;html=1;rounded=0;" parent="1" edge="1">
          <mxGeometry width="50" height="50" relative="1" as="geometry">
            <mxPoint x="2460" y="40" as="sourcePoint" />
            <mxPoint x="2910" y="40" as="targetPoint" />
          </mxGeometry>
        </mxCell>
        <mxCell id="wXBzjPAfJz9evx8sOBb0-16" value="" style="endArrow=none;dashed=1;html=1;rounded=0;" parent="1" edge="1">
          <mxGeometry width="50" height="50" relative="1" as="geometry">
            <mxPoint x="2910" y="258.5" as="sourcePoint" />
            <mxPoint x="2910" y="38.5" as="targetPoint" />
          </mxGeometry>
        </mxCell>
        <mxCell id="wXBzjPAfJz9evx8sOBb0-17" value="" style="endArrow=none;dashed=1;html=1;rounded=0;" parent="1" edge="1">
          <mxGeometry width="50" height="50" relative="1" as="geometry">
            <mxPoint x="2460" y="260" as="sourcePoint" />
            <mxPoint x="2912.06" y="260" as="targetPoint" />
          </mxGeometry>
        </mxCell>
        <mxCell id="wXBzjPAfJz9evx8sOBb0-18" value="" style="endArrow=none;dashed=1;html=1;rounded=0;" parent="1" edge="1">
          <mxGeometry width="50" height="50" relative="1" as="geometry">
            <mxPoint x="2460" y="260" as="sourcePoint" />
            <mxPoint x="2459.63" y="244" as="targetPoint" />
          </mxGeometry>
        </mxCell>
        <mxCell id="wXBzjPAfJz9evx8sOBb0-20" value="" style="rounded=0;whiteSpace=wrap;html=1;fillColor=none;" parent="1" vertex="1">
          <mxGeometry x="2460" y="290" width="450" height="80" as="geometry" />
        </mxCell>
        <mxCell id="wXBzjPAfJz9evx8sOBb0-22" value="" style="image;aspect=fixed;html=1;points=[];align=center;fontSize=12;image=img/lib/azure2/app_services/Search_Services.svg;" parent="1" vertex="1">
          <mxGeometry x="2562" y="305.44" width="68" height="49.120000000000005" as="geometry" />
        </mxCell>
        <mxCell id="wXBzjPAfJz9evx8sOBb0-24" value="" style="endArrow=none;html=1;rounded=0;exitX=0.305;exitY=-0.009;exitDx=0;exitDy=0;exitPerimeter=0;" parent="1" edge="1">
          <mxGeometry width="50" height="50" relative="1" as="geometry">
            <mxPoint x="2610.0000000000005" y="289.2800000000001" as="sourcePoint" />
            <mxPoint x="2610" y="230" as="targetPoint" />
          </mxGeometry>
        </mxCell>
        <mxCell id="wXBzjPAfJz9evx8sOBb0-25" value="" style="endArrow=classic;html=1;rounded=0;" parent="1" edge="1">
          <mxGeometry width="50" height="50" relative="1" as="geometry">
            <mxPoint x="2610" y="230" as="sourcePoint" />
            <mxPoint x="2652" y="228.44" as="targetPoint" />
          </mxGeometry>
        </mxCell>
        <mxCell id="wXBzjPAfJz9evx8sOBb0-26" value="" style="endArrow=none;html=1;rounded=0;" parent="1" edge="1">
          <mxGeometry width="50" height="50" relative="1" as="geometry">
            <mxPoint x="2520" y="231.5" as="sourcePoint" />
            <mxPoint x="2590" y="230" as="targetPoint" />
          </mxGeometry>
        </mxCell>
        <mxCell id="wXBzjPAfJz9evx8sOBb0-27" value="" style="endArrow=classic;html=1;rounded=0;entryX=0.292;entryY=-0.012;entryDx=0;entryDy=0;entryPerimeter=0;" parent="1" target="wXBzjPAfJz9evx8sOBb0-20" edge="1">
          <mxGeometry width="50" height="50" relative="1" as="geometry">
            <mxPoint x="2590" y="230" as="sourcePoint" />
            <mxPoint x="2590" y="290" as="targetPoint" />
          </mxGeometry>
        </mxCell>
        <mxCell id="wXBzjPAfJz9evx8sOBb0-28" value="" style="endArrow=classic;html=1;rounded=0;" parent="1" edge="1">
          <mxGeometry width="50" height="50" relative="1" as="geometry">
            <mxPoint x="2642" y="208.95999999999998" as="sourcePoint" />
            <mxPoint x="2532" y="208.95999999999998" as="targetPoint" />
          </mxGeometry>
        </mxCell>
        <mxCell id="wXBzjPAfJz9evx8sOBb0-29" value="" style="endArrow=classic;html=1;rounded=0;exitX=0.86;exitY=0.171;exitDx=0;exitDy=0;exitPerimeter=0;" parent="1" edge="1">
          <mxGeometry width="50" height="50" relative="1" as="geometry">
            <mxPoint x="2690" y="200.12750000000003" as="sourcePoint" />
            <mxPoint x="2810.62" y="200" as="targetPoint" />
          </mxGeometry>
        </mxCell>
        <mxCell id="wXBzjPAfJz9evx8sOBb0-30" value="" style="endArrow=classic;html=1;rounded=0;" parent="1" edge="1">
          <mxGeometry width="50" height="50" relative="1" as="geometry">
            <mxPoint x="2810" y="219.49" as="sourcePoint" />
            <mxPoint x="2690" y="219.49" as="targetPoint" />
          </mxGeometry>
        </mxCell>
        <mxCell id="wXBzjPAfJz9evx8sOBb0-32" value="" style="image;aspect=fixed;html=1;points=[];align=center;fontSize=12;image=img/lib/azure2/general/Files.svg;" parent="1" vertex="1">
          <mxGeometry x="2831.6299999999997" y="323.44" width="21.54" height="23.56" as="geometry" />
        </mxCell>
        <mxCell id="wXBzjPAfJz9evx8sOBb0-33" value="" style="image;aspect=fixed;html=1;points=[];align=center;fontSize=12;image=img/lib/azure2/databases/SQL_Database.svg;" parent="1" vertex="1">
          <mxGeometry x="2800" y="320.34" width="20" height="26.66" as="geometry" />
        </mxCell>
        <mxCell id="wXBzjPAfJz9evx8sOBb0-34" value="" style="endArrow=classic;html=1;rounded=0;" parent="1" edge="1">
          <mxGeometry width="50" height="50" relative="1" as="geometry">
            <mxPoint x="2792" y="334.96" as="sourcePoint" />
            <mxPoint x="2642" y="334.96" as="targetPoint" />
          </mxGeometry>
        </mxCell>
        <mxCell id="wXBzjPAfJz9evx8sOBb0-35" value="" style="image;aspect=fixed;html=1;points=[];align=center;fontSize=12;image=img/lib/azure2/identity/Security.svg;" parent="1" vertex="1">
          <mxGeometry x="2622.7" y="70" width="23.86" height="28.61" as="geometry" />
        </mxCell>
        <mxCell id="wXBzjPAfJz9evx8sOBb0-36" value="" style="image;aspect=fixed;html=1;points=[];align=center;fontSize=12;image=img/lib/azure2/identity/User_Settings.svg;" parent="1" vertex="1">
          <mxGeometry x="2655.9" y="71.33" width="31" height="25.95" as="geometry" />
        </mxCell>
        <mxCell id="wXBzjPAfJz9evx8sOBb0-37" value="&lt;font style=&quot;font-size: 8px;&quot;&gt;Asynchronous Abuse monitoring&lt;/font&gt;" style="text;strokeColor=none;align=center;fillColor=none;html=1;verticalAlign=middle;whiteSpace=wrap;rounded=0;" parent="1" vertex="1">
          <mxGeometry x="2590" y="90" width="130" height="30" as="geometry" />
        </mxCell>
        <mxCell id="wXBzjPAfJz9evx8sOBb0-38" value="&lt;font style=&quot;font-size: 10px;&quot;&gt;Azure OpenAI Service Boundary&lt;/font&gt;" style="text;strokeColor=none;align=center;fillColor=none;html=1;verticalAlign=middle;whiteSpace=wrap;rounded=0;" parent="1" vertex="1">
          <mxGeometry x="2450" y="40" width="180" height="30" as="geometry" />
        </mxCell>
        <mxCell id="wXBzjPAfJz9evx8sOBb0-39" value="" style="endArrow=none;html=1;rounded=0;" parent="1" edge="1">
          <mxGeometry width="50" height="50" relative="1" as="geometry">
            <mxPoint x="2550" y="188.61" as="sourcePoint" />
            <mxPoint x="2550" y="98.61" as="targetPoint" />
          </mxGeometry>
        </mxCell>
        <mxCell id="wXBzjPAfJz9evx8sOBb0-40" value="" style="endArrow=classic;html=1;rounded=0;" parent="1" edge="1">
          <mxGeometry width="50" height="50" relative="1" as="geometry">
            <mxPoint x="2550" y="98.61" as="sourcePoint" />
            <mxPoint x="2590" y="98.61" as="targetPoint" />
          </mxGeometry>
        </mxCell>
        <mxCell id="wXBzjPAfJz9evx8sOBb0-41" value="&lt;font style=&quot;font-size: 8px;&quot;&gt;Input&lt;/font&gt;" style="text;strokeColor=none;align=center;fillColor=none;html=1;verticalAlign=middle;whiteSpace=wrap;rounded=0;" parent="1" vertex="1">
          <mxGeometry x="2720" y="171.5" width="60" height="30" as="geometry" />
        </mxCell>
        <mxCell id="wXBzjPAfJz9evx8sOBb0-42" value="&lt;font style=&quot;font-size: 8px;&quot;&gt;Response&lt;/font&gt;" style="text;strokeColor=none;align=center;fillColor=none;html=1;verticalAlign=middle;whiteSpace=wrap;rounded=0;" parent="1" vertex="1">
          <mxGeometry x="2720" y="210" width="60" height="30" as="geometry" />
        </mxCell>
        <mxCell id="wXBzjPAfJz9evx8sOBb0-43" value="&lt;font style=&quot;font-size: 8px;&quot;&gt;Azure OpenAI Base Model&lt;/font&gt;" style="text;strokeColor=none;align=center;fillColor=none;html=1;verticalAlign=middle;whiteSpace=wrap;rounded=0;" parent="1" vertex="1">
          <mxGeometry x="2787.4" y="228.44" width="110" height="30" as="geometry" />
        </mxCell>
        <mxCell id="wXBzjPAfJz9evx8sOBb0-44" value="&lt;font style=&quot;font-size: 8px;&quot;&gt;Synchronous Content Filtering&lt;/font&gt;" style="text;strokeColor=none;align=center;fillColor=none;html=1;verticalAlign=middle;whiteSpace=wrap;rounded=0;" parent="1" vertex="1">
          <mxGeometry x="2612" y="228.44" width="120" height="30" as="geometry" />
        </mxCell>
        <mxCell id="wXBzjPAfJz9evx8sOBb0-45" value="&lt;font style=&quot;font-size: 8px;&quot;&gt;Augment Prompts&lt;/font&gt;" style="text;strokeColor=none;align=center;fillColor=none;html=1;verticalAlign=middle;whiteSpace=wrap;rounded=0;" parent="1" vertex="1">
          <mxGeometry x="2600" y="260" width="90" height="30" as="geometry" />
        </mxCell>
        <mxCell id="wXBzjPAfJz9evx8sOBb0-46" value="&lt;font style=&quot;font-size: 8px;&quot;&gt;Retrieve Relevant&amp;nbsp;&lt;/font&gt;&lt;div&gt;&lt;font style=&quot;font-size: 8px;&quot;&gt;Data&lt;/font&gt;&lt;/div&gt;" style="text;strokeColor=none;align=center;fillColor=none;html=1;verticalAlign=middle;whiteSpace=wrap;rounded=0;" parent="1" vertex="1">
          <mxGeometry x="2504" y="230" width="100" height="30" as="geometry" />
        </mxCell>
        <mxCell id="wXBzjPAfJz9evx8sOBb0-48" value="&lt;font style=&quot;font-size: 8px;&quot;&gt;Cognitive Search&lt;/font&gt;" style="text;strokeColor=none;align=center;fillColor=none;html=1;verticalAlign=middle;whiteSpace=wrap;rounded=0;" parent="1" vertex="1">
          <mxGeometry x="2546" y="342" width="100" height="30" as="geometry" />
        </mxCell>
        <mxCell id="wXBzjPAfJz9evx8sOBb0-49" value="&lt;font style=&quot;font-size: 8px;&quot;&gt;Ingest Files&amp;nbsp;&lt;/font&gt;" style="text;strokeColor=none;align=center;fillColor=none;html=1;verticalAlign=middle;whiteSpace=wrap;rounded=0;" parent="1" vertex="1">
          <mxGeometry x="2690" y="310" width="60" height="30" as="geometry" />
        </mxCell>
        <mxCell id="wXBzjPAfJz9evx8sOBb0-50" value="&lt;font style=&quot;font-size: 8px;&quot;&gt;To Index&lt;/font&gt;" style="text;strokeColor=none;align=center;fillColor=none;html=1;verticalAlign=middle;whiteSpace=wrap;rounded=0;" parent="1" vertex="1">
          <mxGeometry x="2686.9" y="325" width="60" height="30" as="geometry" />
        </mxCell>
        <mxCell id="wXBzjPAfJz9evx8sOBb0-51" value="&lt;font style=&quot;font-size: 8px;&quot;&gt;Data Sources&lt;/font&gt;" style="text;strokeColor=none;align=center;fillColor=none;html=1;verticalAlign=middle;whiteSpace=wrap;rounded=0;" parent="1" vertex="1">
          <mxGeometry x="2793.17" y="337.11" width="60" height="30" as="geometry" />
        </mxCell>
        <mxCell id="wXBzjPAfJz9evx8sOBb0-52" value="" style="rounded=1;whiteSpace=wrap;html=1;shadow=0;strokeWidth=2;fillColor=none;fontSize=12;fontColor=#000000;align=center;strokeColor=#FFFFFF;arcSize=9;" parent="1" vertex="1">
          <mxGeometry x="1970" y="452" width="161" height="278" as="geometry" />
        </mxCell>
        <mxCell id="wXBzjPAfJz9evx8sOBb0-53" value="" style="endArrow=none;dashed=1;html=1;dashPattern=1 3;strokeWidth=2;rounded=0;exitX=0.636;exitY=0.006;exitDx=0;exitDy=0;exitPerimeter=0;" parent="1" source="wXBzjPAfJz9evx8sOBb0-52" edge="1">
          <mxGeometry width="50" height="50" relative="1" as="geometry">
            <mxPoint x="2350" y="270" as="sourcePoint" />
            <mxPoint x="2400" y="220" as="targetPoint" />
            <Array as="points">
              <mxPoint x="2190" y="300" />
            </Array>
          </mxGeometry>
        </mxCell>
        <mxCell id="wXBzjPAfJz9evx8sOBb0-54" value="" style="endArrow=none;dashed=1;html=1;dashPattern=1 3;strokeWidth=2;rounded=0;entryX=0;entryY=0.25;entryDx=0;entryDy=0;exitX=0.5;exitY=0;exitDx=0;exitDy=0;" parent="1" source="23046e2b9bb16c14-2" target="wXBzjPAfJz9evx8sOBb0-11" edge="1">
          <mxGeometry width="50" height="50" relative="1" as="geometry">
            <mxPoint x="2320" y="220" as="sourcePoint" />
            <mxPoint x="2370" y="170" as="targetPoint" />
            <Array as="points">
              <mxPoint x="1730" y="160" />
              <mxPoint x="1990" y="150" />
            </Array>
          </mxGeometry>
        </mxCell>
      </root>
    </mxGraphModel>
  </diagram>
</mxfile>
